<?xml version="1.0" encoding="UTF-8"?>
<svg id="Camada_2" data-name="Camada 2" xmlns="http://www.w3.org/2000/svg" viewBox="0 0 659.78 109.25">
  <defs>
    <style>
      .cls-1 {
        fill: none;
      }

      .cls-2 {
        fill: #dfdede;
      }

      .cls-3 {
        fill: #f6f6f7;
      }
    </style>
  </defs>
  <g id="Layer_1" data-name="Layer 1">
    <g>
      <g>
        <g>
          <path class="cls-3" d="M164.77,88.14c-5.4,0-9.98-.37-13.74-1.12-3.77-.75-6.83-2.03-9.19-3.86-2.36-1.83-4.08-4.27-5.14-7.34-1.07-3.06-1.6-6.91-1.6-11.55,0-5.31.53-9.7,1.6-13.17s2.78-6.23,5.14-8.28c2.36-2.05,5.42-3.49,9.19-4.3,3.77-.82,8.35-1.22,13.74-1.22,3.85,0,7.19.28,10.01.84,2.83.56,5.24,1.38,7.25,2.45,2.01,1.07,3.64,2.36,4.89,3.88,1.25,1.52,2.23,3.11,2.95,4.78.72,1.67,1.21,3.63,1.47,5.88.27,2.25.4,4.62.4,7.12l-.68,2.7h-47.89c0,3.62.36,6.58,1.1,8.9.73,2.32,1.94,4.01,3.62,5.08,1.69,1.07,3.91,1.75,6.66,2.03,2.75.29,6.16.43,10.2.43,3.71,0,6.78-.1,9.21-.3,2.43-.2,4.36-.58,5.8-1.14,1.43-.56,2.44-1.34,3.02-2.34.57-1,.86-2.3.86-3.9h8.09c0,2.61-.46,4.84-1.37,6.68-.91,1.84-2.42,3.33-4.53,4.47-2.11,1.14-4.88,1.97-8.33,2.49-3.44.52-7.69.78-12.75.78ZM164.77,44.04c-2.7,0-5.11.06-7.23.17-2.12.11-3.98.36-5.57.74-1.59.38-2.94.93-4.07,1.64-1.12.72-2.03,1.56-2.72,2.53-.69.97-1.19,2.33-1.52,4.09-.32,1.76-.48,3.87-.48,6.34h40.47c0-3.29-.35-5.86-1.05-7.73-.7-1.87-1.81-3.41-3.33-4.62-1.52-1.21-3.47-2.04-5.86-2.49-2.39-.45-5.27-.68-8.64-.68Z"/>
          <path class="cls-3" d="M164.77,89.16c-5.43,0-10.13-.38-13.94-1.13-3.91-.77-7.14-2.14-9.62-4.05-2.51-1.94-4.35-4.57-5.48-7.81-1.1-3.16-1.66-7.16-1.66-11.89,0-5.39.55-9.92,1.65-13.47,1.12-3.64,2.95-6.58,5.45-8.75,2.48-2.16,5.73-3.68,9.64-4.53,3.82-.83,8.51-1.24,13.96-1.24,3.9,0,7.34.29,10.21.86,2.91.58,5.44,1.43,7.53,2.54,2.12,1.13,3.87,2.52,5.2,4.13,1.31,1.59,2.35,3.28,3.1,5.03.75,1.76,1.27,3.83,1.55,6.16.27,2.28.41,4.72.41,7.24l-.03.25-.87,3.47h-47.65c.06,3.04.41,5.59,1.04,7.57.65,2.07,1.73,3.59,3.2,4.52,1.54.98,3.63,1.61,6.22,1.88,2.7.28,6.1.43,10.1.43,3.67,0,6.74-.1,9.13-.3,2.32-.19,4.18-.55,5.51-1.07,1.2-.47,2.05-1.11,2.5-1.9.48-.84.73-1.98.73-3.39v-1.02h10.14v1.02c0,2.76-.5,5.16-1.48,7.14-1,2.03-2.67,3.68-4.96,4.91-2.2,1.19-5.11,2.06-8.66,2.6-3.47.52-7.81.79-12.9.79ZM164.77,38.32c-5.3,0-9.85.4-13.53,1.2-3.58.77-6.51,2.14-8.73,4.07-2.2,1.92-3.83,4.54-4.84,7.81-1.03,3.36-1.56,7.69-1.56,12.87,0,4.5.52,8.27,1.54,11.21,1,2.86,2.61,5.17,4.8,6.86,2.22,1.72,5.17,2.95,8.76,3.66,3.69.73,8.25,1.1,13.55,1.1,4.99,0,9.23-.26,12.6-.77,3.31-.5,6-1.3,7.99-2.38,1.91-1.03,3.29-2.38,4.1-4.03.72-1.45,1.14-3.2,1.24-5.21h-6.07c-.11,1.33-.43,2.46-.96,3.39-.7,1.2-1.88,2.14-3.53,2.78-1.54.6-3.53.99-6.08,1.2-2.44.2-5.57.3-9.29.3-4.07,0-7.54-.15-10.31-.44-2.9-.3-5.29-1.04-7.1-2.19-1.89-1.2-3.25-3.09-4.05-5.63-.76-2.4-1.14-5.5-1.14-9.21v-1.02h48.11l.45-1.8c0-2.4-.14-4.72-.39-6.88-.26-2.14-.73-4.02-1.4-5.6-.67-1.57-1.62-3.1-2.8-4.54-1.16-1.4-2.7-2.62-4.58-3.63-1.92-1.02-4.26-1.81-6.97-2.35-2.74-.55-6.05-.82-9.81-.82ZM184.68,60.58h-42.51v-1.02c0-2.52.17-4.72.5-6.53.35-1.9.92-3.41,1.69-4.5.76-1.07,1.77-2.01,3-2.8,1.22-.77,2.69-1.37,4.38-1.78,1.64-.39,3.57-.65,5.75-.76,2.15-.11,4.6-.17,7.28-.17,3.42,0,6.39.23,8.83.69,2.54.48,4.67,1.38,6.31,2.69,1.66,1.32,2.89,3.02,3.65,5.06.75,2,1.12,4.65,1.12,8.09v1.02ZM144.22,58.53h38.41c-.07-2.67-.39-4.8-.98-6.35-.63-1.69-1.65-3.09-3.01-4.18-1.38-1.1-3.2-1.87-5.41-2.28-2.32-.44-5.16-.66-8.45-.66-2.64,0-5.06.06-7.18.17-2.05.11-3.87.35-5.38.71-1.47.35-2.73.86-3.76,1.51-1.01.64-1.83,1.4-2.44,2.26-.6.84-1.05,2.08-1.34,3.68-.27,1.44-.42,3.17-.46,5.14Z"/>
        </g>
        <g>
          <path class="cls-3" d="M226.85,88.14c-5.4,0-9.98-.4-13.74-1.19-3.77-.79-6.83-2.15-9.19-4.08-2.36-1.93-4.08-4.52-5.14-7.78-1.07-3.26-1.6-7.35-1.6-12.29s.53-9.17,1.6-12.46c1.07-3.29,2.78-5.89,5.14-7.82,2.36-1.92,5.42-3.28,9.19-4.06,3.77-.78,8.35-1.17,13.74-1.17,3.82,0,7.02.2,9.61.59,2.59.39,4.7.88,6.34,1.47,1.64.59,2.89,1.23,3.75,1.92.86.69,1.48,1.33,1.88,1.92v-20.74h8.09v64.75h-8.09v-7.61l-2.02,2.52c-1.18,1.21-2.49,2.18-3.92,2.92-1.43.74-3.44,1.44-6.03,2.1s-5.79.99-9.61.99ZM226.85,81.39c2.7,0,5.1-.06,7.21-.19,2.11-.12,3.96-.39,5.57-.81,1.6-.42,2.96-1.04,4.07-1.86s2.02-1.91,2.72-3.27c.7-1.36,1.22-3.05,1.54-5.07.32-2.01.48-4.44.48-7.28s-.16-5.45-.48-7.52c-.32-2.07-.84-3.81-1.54-5.21-.7-1.4-1.61-2.51-2.72-3.31-1.11-.81-2.47-1.42-4.07-1.86-1.6-.43-3.46-.7-5.57-.81-2.11-.11-4.51-.17-7.21-.17-3.15,0-5.87.1-8.16.29-2.29.2-4.24.54-5.84,1.04-1.6.5-2.9,1.2-3.9,2.08-1,.89-1.77,2.03-2.32,3.42-.55,1.39-.91,3.06-1.1,5.02-.18,1.96-.27,4.26-.27,6.9s.09,4.88.27,6.82c.18,1.93.55,3.58,1.1,4.96.55,1.38,1.32,2.51,2.32,3.4,1,.89,2.3,1.58,3.9,2.08,1.6.5,3.55.85,5.84,1.04,2.29.2,5.01.29,8.16.29Z"/>
          <path class="cls-3" d="M226.85,89.16c-5.44,0-10.14-.41-13.96-1.21-3.91-.82-7.15-2.27-9.62-4.29-2.5-2.04-4.34-4.82-5.47-8.25-1.1-3.35-1.65-7.59-1.65-12.6s.56-9.4,1.65-12.77c1.12-3.46,2.97-6.25,5.47-8.29,2.47-2.02,5.71-3.45,9.62-4.27,3.82-.79,8.51-1.19,13.95-1.19,3.85,0,7.13.2,9.76.6,2.64.4,4.84.92,6.54,1.52,1.77.63,3.09,1.32,4.05,2.08.07.06.15.12.22.18v-19.23h10.14v66.79h-10.14v-5.73l-.21.26c-1.32,1.36-2.73,2.41-4.25,3.19-1.51.78-3.55,1.49-6.24,2.18-2.65.68-5.97,1.03-9.86,1.03ZM226.85,38.32c-5.3,0-9.85.39-13.54,1.15-3.59.74-6.53,2.04-8.75,3.85-2.2,1.79-3.82,4.26-4.82,7.34-1.03,3.17-1.55,7.26-1.55,12.14s.52,8.83,1.55,11.97c1,3.06,2.62,5.51,4.82,7.31,2.22,1.81,5.16,3.12,8.75,3.87,3.68.78,8.23,1.17,13.53,1.17,3.72,0,6.87-.32,9.36-.96,2.5-.64,4.46-1.32,5.81-2.02,1.32-.68,2.55-1.6,3.66-2.73l3.77-4.71v9.49h6.05V23.48h-6.05v23.08l-1.87-2.79c-.33-.5-.89-1.07-1.67-1.69-.77-.62-1.93-1.21-3.46-1.75-1.57-.56-3.64-1.04-6.15-1.43-2.53-.38-5.71-.58-9.46-.58ZM226.85,82.41c-3.16,0-5.93-.1-8.24-.3-2.35-.2-4.39-.56-6.06-1.09-1.74-.54-3.17-1.32-4.27-2.3-1.11-.99-1.98-2.26-2.59-3.78-.58-1.46-.97-3.22-1.16-5.24-.18-1.94-.28-4.27-.28-6.91s.09-5.03.28-6.99c.19-2.05.58-3.83,1.16-5.3.6-1.53,1.48-2.81,2.59-3.81,1.1-.98,2.54-1.75,4.27-2.3,1.66-.52,3.7-.88,6.06-1.09,2.31-.2,5.09-.3,8.25-.3,2.67,0,5.11.06,7.26.17,2.17.12,4.11.4,5.78.85,1.71.46,3.19,1.14,4.4,2.01,1.24.9,2.26,2.14,3.03,3.68.75,1.5,1.3,3.35,1.63,5.51.33,2.11.5,4.7.5,7.68s-.17,5.38-.5,7.44c-.34,2.11-.89,3.91-1.64,5.37-.77,1.5-1.79,2.72-3.02,3.63-1.21.89-2.7,1.58-4.42,2.02-1.66.43-3.6.72-5.76.84-2.13.13-4.57.19-7.27.19ZM226.85,45.06c-3.1,0-5.82.1-8.07.29-2.21.19-4.1.53-5.62,1-1.45.46-2.64,1.09-3.52,1.87-.87.78-1.56,1.8-2.05,3.03-.51,1.29-.85,2.89-1.03,4.74-.18,1.9-.27,4.19-.27,6.8s.09,4.84.27,6.72c.17,1.83.52,3.4,1.03,4.68.49,1.22,1.18,2.23,2.05,3.01.88.79,2.07,1.42,3.53,1.87,1.53.48,3.42.81,5.62,1,2.25.19,4.97.29,8.07.29,2.65,0,5.06-.06,7.15-.19,2.03-.12,3.84-.38,5.37-.78,1.46-.38,2.72-.95,3.72-1.69.98-.72,1.79-1.7,2.42-2.92.65-1.26,1.13-2.86,1.44-4.76.31-1.95.47-4.35.47-7.11s-.16-5.36-.47-7.37c-.3-1.95-.79-3.61-1.44-4.91-.63-1.25-1.43-2.24-2.41-2.95-1.01-.73-2.26-1.3-3.73-1.69-1.53-.41-3.33-.67-5.35-.78-2.12-.11-4.52-.17-7.15-.17Z"/>
        </g>
        <g>
          <path class="cls-3" d="M291.27,88.14c-5.4,0-9.98-.37-13.74-1.12-3.77-.75-6.83-2.03-9.19-3.86-2.36-1.83-4.08-4.27-5.14-7.34-1.07-3.06-1.6-6.91-1.6-11.55,0-5.31.53-9.7,1.6-13.17,1.07-3.47,2.78-6.23,5.14-8.28,2.36-2.05,5.42-3.49,9.19-4.3,3.77-.82,8.35-1.22,13.74-1.22,3.85,0,7.19.28,10.01.84,2.83.56,5.24,1.38,7.25,2.45,2.01,1.07,3.64,2.36,4.89,3.88,1.25,1.52,2.23,3.11,2.95,4.78.72,1.67,1.21,3.63,1.47,5.88.27,2.25.4,4.62.4,7.12l-.68,2.7h-47.89c0,3.62.36,6.58,1.1,8.9.73,2.32,1.94,4.01,3.62,5.08,1.69,1.07,3.91,1.75,6.66,2.03,2.75.29,6.16.43,10.2.43,3.71,0,6.78-.1,9.21-.3,2.43-.2,4.36-.58,5.8-1.14,1.43-.56,2.44-1.34,3.02-2.34.57-1,.86-2.3.86-3.9h8.09c0,2.61-.46,4.84-1.37,6.68-.91,1.84-2.42,3.33-4.53,4.47-2.11,1.14-4.88,1.97-8.33,2.49-3.44.52-7.69.78-12.75.78ZM291.27,44.04c-2.7,0-5.11.06-7.23.17-2.12.11-3.98.36-5.57.74-1.59.38-2.94.93-4.07,1.64-1.12.72-2.03,1.56-2.72,2.53-.69.97-1.19,2.33-1.52,4.09-.32,1.76-.48,3.87-.48,6.34h40.47c0-3.29-.35-5.86-1.05-7.73-.7-1.87-1.81-3.41-3.33-4.62-1.52-1.21-3.47-2.04-5.86-2.49-2.39-.45-5.27-.68-8.64-.68Z"/>
          <path class="cls-3" d="M291.27,89.16c-5.43,0-10.13-.38-13.94-1.13-3.91-.77-7.14-2.14-9.62-4.05-2.51-1.94-4.35-4.57-5.48-7.81-1.1-3.16-1.66-7.16-1.66-11.89,0-5.39.55-9.92,1.65-13.47,1.12-3.64,2.95-6.58,5.45-8.75,2.48-2.16,5.73-3.68,9.64-4.53,3.82-.83,8.51-1.24,13.96-1.24,3.9,0,7.34.29,10.21.86,2.91.58,5.44,1.43,7.53,2.54,2.12,1.13,3.87,2.52,5.2,4.13,1.31,1.59,2.35,3.28,3.1,5.03.75,1.76,1.27,3.83,1.55,6.16.27,2.28.41,4.72.41,7.24l-.03.25-.87,3.47h-47.65c.06,3.04.41,5.59,1.04,7.57.65,2.07,1.73,3.59,3.2,4.52,1.54.98,3.63,1.61,6.22,1.88,2.7.28,6.1.43,10.1.43,3.67,0,6.74-.1,9.13-.3,2.32-.19,4.18-.55,5.51-1.07,1.2-.47,2.05-1.11,2.5-1.9.48-.84.73-1.98.73-3.39v-1.02h10.14v1.02c0,2.76-.5,5.16-1.48,7.14-1,2.03-2.67,3.68-4.96,4.91-2.2,1.19-5.11,2.06-8.66,2.6-3.47.52-7.81.79-12.9.79ZM291.27,38.32c-5.3,0-9.85.4-13.53,1.2-3.58.77-6.51,2.14-8.73,4.07-2.2,1.92-3.83,4.54-4.84,7.81-1.03,3.36-1.56,7.69-1.56,12.87,0,4.5.52,8.27,1.54,11.21,1,2.86,2.61,5.17,4.8,6.86,2.22,1.72,5.17,2.95,8.76,3.66,3.69.73,8.25,1.1,13.55,1.1,4.99,0,9.23-.26,12.6-.77,3.31-.5,6-1.3,7.99-2.38,1.91-1.03,3.29-2.38,4.1-4.03.72-1.45,1.14-3.2,1.24-5.21h-6.07c-.11,1.33-.43,2.46-.96,3.39-.7,1.2-1.88,2.14-3.53,2.78-1.54.6-3.53.99-6.08,1.2-2.44.2-5.57.3-9.29.3-4.07,0-7.54-.15-10.31-.44-2.9-.3-5.29-1.04-7.1-2.19-1.89-1.2-3.25-3.09-4.05-5.63-.76-2.4-1.14-5.5-1.14-9.21v-1.02h48.11l.45-1.8c0-2.4-.14-4.72-.39-6.88-.26-2.14-.73-4.02-1.4-5.6-.67-1.57-1.62-3.1-2.8-4.54-1.16-1.4-2.7-2.62-4.58-3.63-1.92-1.02-4.26-1.81-6.97-2.35-2.74-.55-6.05-.82-9.81-.82ZM311.17,60.58h-42.51v-1.02c0-2.52.17-4.72.5-6.53.35-1.9.92-3.41,1.69-4.5.76-1.07,1.77-2.01,3-2.8,1.22-.77,2.69-1.37,4.38-1.78,1.64-.39,3.57-.65,5.75-.76,2.15-.11,4.6-.17,7.28-.17,3.42,0,6.39.23,8.83.69,2.54.48,4.67,1.38,6.31,2.69,1.66,1.32,2.89,3.02,3.65,5.06.75,2,1.12,4.65,1.12,8.09v1.02ZM270.71,58.53h38.41c-.07-2.67-.39-4.8-.98-6.35-.63-1.69-1.65-3.09-3.01-4.18-1.38-1.1-3.2-1.87-5.41-2.28-2.32-.44-5.16-.66-8.45-.66-2.64,0-5.06.06-7.18.17-2.05.11-3.87.35-5.38.71-1.47.35-2.73.86-3.76,1.51-1.01.64-1.83,1.4-2.44,2.26-.6.84-1.05,2.08-1.34,3.68-.27,1.44-.42,3.17-.46,5.14Z"/>
        </g>
        <g>
          <path class="cls-3" d="M342.72,64.91c-2.9-.11-5.39-.34-7.48-.7-2.09-.35-3.84-.85-5.23-1.5-1.39-.65-2.49-1.51-3.31-2.59s-1.39-2.42-1.73-4.01c-.34-1.59-.51-3.31-.51-5.16,0-2.53.53-4.66,1.6-6.39s2.78-3.13,5.14-4.22c2.36-1.08,5.42-1.86,9.19-2.34,3.77-.48,8.35-.72,13.74-.72s9.74.28,13.22.84,6.23,1.43,8.26,2.59c2.04,1.17,3.46,2.63,4.28,4.4.82,1.77,1.22,3.88,1.22,6.32h-8.09c0-1.52-.29-2.75-.86-3.71-.58-.95-1.58-1.71-3.02-2.26s-3.37-.93-5.8-1.14c-2.43-.21-5.5-.32-9.21-.32-4.05,0-7.45.06-10.2.17-2.75.11-4.97.39-6.66.84-1.69.45-2.9,1.14-3.62,2.07-.73.93-1.1,2.21-1.1,3.84,0,.95.06,1.89.19,2.8.13.91.41,1.66.86,2.25.45.59,1.11,1.04,1.98,1.35.87.31,2.06.54,3.56.7,1.5.16,3.37.24,5.59.25,2.22.02,4.9.02,8.05.02,3.82,0,7.17.08,10.05.25,2.88.17,5.38.46,7.48.88,2.11.42,3.85,1.07,5.23,1.94,1.38.87,2.48,1.82,3.31,2.85.83,1.03,1.41,2.23,1.75,3.63.34,1.39.51,3,.51,4.83s-.17,3.46-.51,4.91c-.34,1.45-.93,2.73-1.77,3.84-.84,1.11-1.99,2.07-3.44,2.87-1.45.8-3.27,1.45-5.46,1.94s-4.81.86-7.86,1.1c-3.05.24-6.6.36-10.65.36-5.06,0-9.31-.25-12.75-.76-3.44-.51-6.22-1.31-8.33-2.42-2.11-1.11-3.62-2.55-4.53-4.32-.91-1.77-1.37-3.93-1.37-6.49h8.09c0,1.69.29,3.06.86,4.11.58,1.05,1.58,1.88,3.02,2.47,1.43.59,3.37.99,5.8,1.2,2.43.21,5.5.31,9.21.31,3.37,0,6.25-.08,8.62-.23,2.38-.16,4.36-.4,5.96-.74,1.6-.34,2.87-.75,3.79-1.22.93-.48,1.63-1.05,2.11-1.73.48-.68.78-1.43.91-2.26s.19-1.75.19-2.76c0-.93-.06-1.75-.19-2.47-.13-.72-.41-1.43-.86-2.15-.45-.72-1.11-1.26-1.98-1.62-.87-.36-2.06-.67-3.56-.9-1.5-.24-3.37-.41-5.59-.51-2.22-.1-4.9-.15-8.05-.15-3.82,0-7.18-.06-10.08-.17Z"/>
          <path class="cls-3" d="M351.45,88.74c-5.09,0-9.43-.26-12.9-.77-3.55-.52-6.46-1.37-8.66-2.53-2.29-1.21-3.96-2.81-4.96-4.76-.98-1.91-1.48-4.25-1.48-6.96v-1.02h10.14v1.02c0,1.51.25,2.73.74,3.62.46.84,1.3,1.51,2.51,2.01,1.33.55,3.18.93,5.5,1.13,2.4.21,5.47.31,9.12.31,3.35,0,6.23-.08,8.55-.23,2.32-.15,4.28-.39,5.82-.72,1.51-.32,2.7-.7,3.54-1.13.78-.4,1.36-.87,1.75-1.41.39-.55.63-1.14.73-1.82.12-.78.18-1.66.18-2.61,0-.86-.06-1.63-.17-2.29-.1-.58-.35-1.18-.73-1.78-.34-.54-.83-.94-1.51-1.23-.79-.33-1.91-.61-3.33-.84-1.46-.23-3.3-.4-5.47-.49-2.21-.1-4.9-.15-8.01-.15-3.84,0-7.24-.06-10.12-.17h0c-2.93-.11-5.49-.35-7.61-.71-2.18-.36-4.02-.9-5.49-1.58-1.54-.71-2.78-1.69-3.69-2.9-.9-1.2-1.54-2.68-1.91-4.41-.35-1.64-.53-3.45-.53-5.37,0-2.71.59-5.04,1.75-6.92,1.17-1.9,3.05-3.45,5.59-4.61,2.45-1.12,5.64-1.94,9.48-2.42,3.8-.48,8.47-.72,13.87-.72s9.87.29,13.38.86c3.57.58,6.47,1.49,8.6,2.71,2.22,1.27,3.8,2.9,4.7,4.86.87,1.9,1.32,4.17,1.32,6.75v1.02h-10.14v-1.02c0-1.32-.24-2.39-.72-3.19-.45-.75-1.3-1.37-2.5-1.83-1.34-.51-3.19-.87-5.52-1.07-2.39-.21-5.46-.31-9.12-.31-3.98,0-7.4.06-10.16.17-2.67.11-4.83.38-6.44.81-1.46.39-2.5.97-3.08,1.71-.58.74-.88,1.82-.88,3.21,0,.91.06,1.81.18,2.66.1.73.32,1.33.67,1.78.33.43.82.76,1.51,1.01.79.28,1.91.5,3.32.64,1.46.15,3.31.23,5.49.25,2.22.02,4.9.02,8.05.02,3.83,0,7.24.09,10.11.26,2.9.17,5.47.47,7.62.9,2.22.45,4.1,1.14,5.57,2.08,1.47.93,2.66,1.96,3.56,3.07.92,1.14,1.58,2.5,1.95,4.03.35,1.47.53,3.17.53,5.07s-.18,3.62-.53,5.14c-.37,1.58-1.02,3-1.95,4.22-.93,1.22-2.19,2.28-3.76,3.14-1.52.84-3.45,1.53-5.73,2.04-2.22.5-4.92.88-8,1.12-3.06.24-6.67.36-10.72.36ZM325.52,74.74c.1,1.94.52,3.62,1.23,5,.81,1.57,2.19,2.88,4.1,3.89,1.99,1.05,4.68,1.83,8,2.32,3.38.5,7.62.75,12.6.75,4,0,7.55-.12,10.57-.36,2.99-.23,5.59-.6,7.72-1.07,2.09-.47,3.83-1.09,5.19-1.84,1.32-.73,2.37-1.6,3.12-2.59.75-.99,1.29-2.15,1.59-3.45.32-1.37.48-2.94.48-4.68s-.16-3.28-.48-4.59c-.3-1.24-.82-2.32-1.55-3.23-.76-.93-1.79-1.81-3.06-2.62-1.26-.8-2.91-1.4-4.88-1.8-2.06-.41-4.53-.7-7.34-.87-2.84-.17-6.2-.25-9.99-.25-3.15,0-5.84,0-8.06-.02-2.25-.01-4.16-.1-5.68-.26-1.6-.16-2.84-.41-3.8-.75-1.06-.37-1.88-.94-2.45-1.69-.56-.73-.91-1.65-1.06-2.73-.13-.94-.2-1.93-.2-2.94,0-1.86.44-3.36,1.32-4.47.86-1.1,2.26-1.91,4.16-2.42,1.75-.47,4.07-.76,6.88-.88,2.79-.11,6.24-.17,10.24-.17,3.72,0,6.85.11,9.3.32,2.55.22,4.54.61,6.07,1.2,1.64.63,2.83,1.53,3.52,2.68.53.89.85,1.96.97,3.22h6.07c-.1-1.86-.47-3.5-1.1-4.88-.72-1.57-2.02-2.89-3.86-3.94-1.92-1.1-4.59-1.93-7.92-2.47-3.4-.55-7.79-.83-13.05-.83s-9.9.24-13.62.71c-3.64.46-6.63,1.22-8.89,2.25-2.16.99-3.74,2.28-4.7,3.83-.96,1.56-1.45,3.53-1.45,5.85,0,1.78.16,3.45.48,4.95.3,1.44.82,2.65,1.54,3.6.71.94,1.69,1.71,2.93,2.28,1.3.61,2.97,1.08,4.97,1.42,2.03.34,4.51.57,7.35.68h0c2.85.11,6.23.17,10.04.17,3.13,0,5.86.05,8.09.15,2.25.1,4.16.27,5.7.52,1.6.25,2.85.57,3.8.97,1.07.45,1.89,1.13,2.45,2.02.52.83.86,1.67,1,2.51.14.77.21,1.66.21,2.64,0,1.05-.07,2.03-.2,2.91-.15.98-.51,1.89-1.08,2.69-.57.81-1.4,1.49-2.47,2.04-1.01.52-2.34.95-4.05,1.32-1.64.34-3.69.6-6.11.76-2.37.15-5.29.23-8.69.23-3.71,0-6.84-.11-9.3-.32-2.52-.22-4.58-.65-6.1-1.27-1.65-.68-2.84-1.66-3.52-2.92-.53-.97-.85-2.17-.95-3.58h-6.06Z"/>
        </g>
        <g>
          <path class="cls-3" d="M386.09,62.38c0-4.93.53-9.02,1.6-12.25,1.07-3.23,2.78-5.8,5.14-7.69,2.36-1.9,5.42-3.23,9.19-3.99,3.77-.77,8.35-1.15,13.74-1.15s9.98.38,13.74,1.15c3.77.77,6.83,2.1,9.19,3.99,2.36,1.9,4.08,4.46,5.14,7.69,1.07,3.23,1.6,7.32,1.6,12.25s-.53,9.18-1.6,12.49c-1.07,3.31-2.78,5.95-5.14,7.9-2.36,1.95-5.42,3.34-9.19,4.14-3.77.81-8.35,1.21-13.74,1.21s-9.98-.4-13.74-1.21c-3.77-.81-6.83-2.19-9.19-4.14-2.36-1.95-4.08-4.59-5.14-7.9-1.07-3.31-1.6-7.48-1.6-12.49ZM394.19,62.38c0,2.67.1,4.99.29,6.96.2,1.97.57,3.67,1.12,5.09.55,1.42,1.31,2.57,2.3,3.46.98.89,2.28,1.6,3.88,2.13,1.6.53,3.55.89,5.84,1.08,2.29.2,5.01.29,8.16.29,2.7,0,5.11-.06,7.23-.19,2.12-.12,3.98-.41,5.56-.85s2.95-1.08,4.07-1.9,2.03-1.94,2.72-3.36c.69-1.42,1.2-3.16,1.52-5.23s.48-4.57.48-7.48-.16-5.3-.48-7.32c-.32-2.01-.83-3.7-1.52-5.06-.69-1.36-1.59-2.44-2.72-3.23s-2.48-1.39-4.07-1.79-3.44-.66-5.56-.77c-2.12-.11-4.53-.17-7.23-.17s-5.11.06-7.23.17c-2.12.11-3.98.37-5.57.77-1.59.4-2.94,1-4.07,1.79-1.12.79-2.03,1.87-2.72,3.23-.69,1.36-1.19,3.05-1.52,5.06-.32,2.02-.48,4.45-.48,7.32Z"/>
          <path class="cls-3" d="M415.77,89.16c-5.45,0-10.14-.41-13.96-1.23-3.91-.84-7.15-2.31-9.63-4.36-2.5-2.07-4.34-4.89-5.46-8.38-1.1-3.4-1.65-7.71-1.65-12.81s.56-9.25,1.65-12.57c1.13-3.41,2.97-6.16,5.47-8.17,2.47-1.99,5.71-3.4,9.62-4.2,3.81-.78,8.51-1.17,13.95-1.17s10.13.39,13.95,1.17c3.91.8,7.15,2.21,9.63,4.2,2.5,2.01,4.35,4.76,5.47,8.17,1.1,3.32,1.65,7.55,1.65,12.57s-.56,9.41-1.65,12.81c-1.12,3.49-2.96,6.31-5.46,8.38-2.48,2.05-5.72,3.52-9.62,4.36-3.82.82-8.51,1.23-13.96,1.23ZM415.77,38.32c-5.31,0-9.86.38-13.54,1.13-3.59.73-6.54,2.01-8.75,3.79-2.19,1.76-3.81,4.19-4.81,7.22-1.03,3.12-1.55,7.13-1.55,11.93s.52,8.98,1.55,12.18c1,3.11,2.63,5.61,4.82,7.43,2.22,1.84,5.17,3.16,8.75,3.93,3.67.79,8.23,1.19,13.53,1.19s9.85-.4,13.53-1.19c3.58-.77,6.53-2.09,8.75-3.93,2.2-1.82,3.82-4.32,4.82-7.43,1.03-3.2,1.55-7.3,1.55-12.18s-.52-8.82-1.55-11.93c-1-3.03-2.62-5.46-4.81-7.22-2.22-1.78-5.17-3.06-8.76-3.79-3.68-.75-8.23-1.13-13.54-1.13ZM415.77,82.41c-3.16,0-5.93-.1-8.24-.3-2.36-.2-4.41-.58-6.07-1.13-1.73-.57-3.16-1.36-4.24-2.34-1.1-.99-1.96-2.29-2.56-3.85-.58-1.5-.98-3.3-1.18-5.35-.2-1.99-.3-4.37-.3-7.06,0-2.9.17-5.42.5-7.48.34-2.11.88-3.91,1.61-5.36.76-1.51,1.79-2.72,3.04-3.6,1.23-.86,2.71-1.52,4.4-1.95,1.65-.42,3.58-.69,5.76-.8,2.17-.11,4.62-.17,7.28-.17s5.11.06,7.28.17c2.18.11,4.12.38,5.76.8,1.7.43,3.18,1.09,4.41,1.95,1.26.88,2.28,2.1,3.04,3.6.73,1.45,1.28,3.25,1.62,5.36.33,2.06.5,4.58.5,7.48s-.17,5.53-.5,7.64c-.34,2.16-.88,4.02-1.61,5.52-.76,1.56-1.78,2.82-3.03,3.73-1.22.89-2.7,1.58-4.4,2.05-1.65.46-3.6.76-5.78.89-2.14.13-4.6.19-7.29.19ZM415.77,45.06c-2.63,0-5.05.06-7.18.17-2.04.11-3.85.36-5.37.74-1.45.37-2.71.92-3.73,1.64-.98.69-1.79,1.65-2.4,2.86-.64,1.26-1.12,2.86-1.42,4.76-.31,1.95-.47,4.36-.47,7.16,0,2.63.1,4.94.29,6.86.19,1.87.54,3.49,1.05,4.82.49,1.26,1.17,2.29,2.03,3.07.87.79,2.05,1.43,3.51,1.92,1.52.5,3.4.85,5.61,1.04,2.25.19,4.97.29,8.07.29,2.65,0,5.07-.06,7.17-.19,2.03-.12,3.83-.39,5.35-.82,1.46-.41,2.72-.99,3.74-1.74.98-.72,1.79-1.72,2.4-2.98.64-1.32,1.12-2.98,1.43-4.94.31-2.01.47-4.47.47-7.33s-.16-5.2-.47-7.16c-.3-1.9-.78-3.5-1.42-4.76-.61-1.21-1.41-2.17-2.4-2.86-1.02-.72-2.28-1.27-3.73-1.64-1.52-.38-3.32-.63-5.37-.74-2.13-.11-4.55-.17-7.18-.17Z"/>
        </g>
        <g>
          <path class="cls-3" d="M465.67,45.39v41.82h-8.09v-41.82h-8.09v-6.74h8.09v-.42c0-3.29.36-6.03,1.1-8.22.73-2.19,1.94-3.95,3.62-5.27s3.91-2.26,6.68-2.8c2.77-.55,6.18-.82,10.22-.82h9.4v6.75h-9.44c-2.56,0-4.69.06-6.41.17-1.71.11-3.1.49-4.15,1.14-1.05.65-1.81,1.67-2.26,3.08-.45,1.4-.68,3.4-.68,5.99v.42h22.93v6.74h-22.93Z"/>
          <path class="cls-3" d="M466.69,88.23h-10.13v-41.82h-8.09v-8.78h8.1c.04-3.13.43-5.8,1.14-7.95.79-2.37,2.12-4.31,3.96-5.75,1.81-1.41,4.2-2.42,7.11-3,2.82-.56,6.33-.84,10.42-.84h10.42v8.79h-10.46c-2.53,0-4.67.06-6.34.17-1.54.1-2.78.43-3.68.99-.85.52-1.44,1.34-1.82,2.52-.38,1.19-.59,2.9-.62,5.08h22.93v8.78h-22.93v41.82ZM458.6,86.19h6.05v-41.82h22.93v-4.7h-22.93v-1.44c0-2.72.24-4.78.72-6.3.52-1.64,1.43-2.86,2.7-3.63,1.19-.73,2.74-1.16,4.62-1.29,1.72-.11,3.9-.17,6.47-.17h8.42v-4.7h-8.38c-3.96,0-7.33.27-10.03.8-2.6.52-4.7,1.39-6.25,2.61-1.52,1.19-2.63,2.8-3.29,4.79-.69,2.08-1.04,4.73-1.04,7.9v1.44h-8.09v4.7h8.09v41.82Z"/>
        </g>
        <g>
          <path class="cls-3" d="M544.81,65.63c0,4.13-.34,7.58-1.01,10.35-.68,2.77-1.81,4.98-3.39,6.64-1.59,1.66-3.68,2.84-6.26,3.54-2.59.7-5.77,1.05-9.57,1.05s-6.77-.28-9.27-.84c-2.5-.56-4.53-1.51-6.07-2.86-1.55-1.35-2.66-3.14-3.33-5.38-.67-2.24-1.01-5.05-1.01-8.42v-24.32h-9.99v-6.74h9.99v-13.2h8.09v13.2h30.48v6.74h-30.48v24.31c0,2.69.2,4.77.61,6.23.41,1.46,1.06,2.52,1.96,3.2.9.67,2.09,1.07,3.56,1.18,1.48.11,3.28.17,5.42.17,1.69,0,3.2-.03,4.53-.08,1.34-.06,2.5-.23,3.5-.53,1-.29,1.85-.74,2.55-1.35.7-.61,1.27-1.45,1.71-2.55.44-1.1.75-2.48.95-4.15.2-1.67.29-3.73.29-6.18h6.75Z"/>
          <path class="cls-3" d="M524.57,88.23c-3.75,0-6.94-.29-9.5-.87-2.66-.6-4.85-1.64-6.52-3.09-1.68-1.47-2.91-3.44-3.64-5.86-.7-2.33-1.05-5.26-1.05-8.71v-23.3h-9.99v-8.78h9.99v-13.2h10.13v13.2h30.48v8.78h-30.48v23.29c0,2.59.19,4.59.57,5.95.34,1.23.88,2.12,1.59,2.66.74.55,1.76.88,3.03.98,1.44.11,3.24.16,5.34.16,1.67,0,3.17-.03,4.49-.08,1.25-.05,2.34-.22,3.25-.49.86-.25,1.59-.64,2.18-1.14.57-.5,1.05-1.22,1.42-2.15.4-1.01.7-2.32.88-3.9.19-1.62.29-3.66.29-6.06v-1.02h8.79v1.02c0,4.19-.35,7.76-1.04,10.59-.71,2.93-1.94,5.32-3.65,7.1-1.71,1.79-3.98,3.07-6.73,3.82-2.66.72-5.97,1.09-9.84,1.09ZM495.91,44.37h9.99v25.34c0,3.25.32,5.98.97,8.12.62,2.05,1.63,3.7,3.02,4.91,1.41,1.23,3.3,2.11,5.62,2.64,2.41.54,5.46.82,9.05.82s6.82-.34,9.3-1.02c2.39-.65,4.34-1.75,5.79-3.26,1.45-1.52,2.51-3.6,3.14-6.18.59-2.45.92-5.5.97-9.09h-4.7c-.02,2.04-.12,3.82-.3,5.27-.2,1.75-.54,3.23-1.01,4.41-.49,1.24-1.16,2.23-1.99,2.95-.81.7-1.8,1.22-2.93,1.55-1.07.32-2.33.51-3.75.57-1.35.06-2.87.08-4.57.08-2.15,0-4-.06-5.5-.17-1.66-.13-3.04-.59-4.1-1.38-1.08-.81-1.87-2.07-2.33-3.74-.44-1.56-.65-3.68-.65-6.5v-25.33h30.48v-4.7h-30.48v-13.2h-6.05v13.2h-9.99v4.7Z"/>
        </g>
      </g>
      <g>
        <path class="cls-3" d="M570.68,57.5c-.73,0-1.34-.05-1.83-.16-.49-.1-.88-.21-1.19-.33-.31-.12-.54-.31-.7-.57-.16-.26-.28-.46-.36-.61v1.49h-1.53v-12.25h1.53v3.93c.07-.11.19-.23.35-.36s.4-.25.71-.36c.31-.11.71-.21,1.2-.28s1.1-.11,1.83-.11c1.02,0,1.89.08,2.6.23.71.15,1.29.41,1.74.78s.77.86.97,1.48c.2.62.3,1.39.3,2.33s-.1,1.71-.3,2.33c-.2.62-.53,1.11-.97,1.47-.45.36-1.03.62-1.74.77-.71.15-1.58.23-2.6.23ZM570.68,56.22c.6,0,1.11-.02,1.54-.06.43-.04.8-.1,1.11-.2s.55-.23.74-.39c.19-.17.34-.38.44-.64s.17-.57.21-.94.05-.8.05-1.29-.02-.93-.05-1.29-.1-.68-.21-.94c-.1-.26-.25-.48-.44-.65-.19-.17-.43-.31-.74-.4-.3-.1-.67-.16-1.11-.2-.43-.04-.95-.06-1.54-.06-.51,0-.97.01-1.36.04s-.75.08-1.05.16c-.3.08-.56.21-.77.36-.21.16-.38.37-.51.63-.13.26-.23.59-.29.98-.06.39-.09.86-.09,1.4s.03.99.09,1.38c.06.38.16.7.29.96.13.26.3.47.51.62s.47.27.77.35c.3.08.66.13,1.05.15s.85.04,1.36.04Z"/>
        <path class="cls-3" d="M579.61,48.13v5.06c0,.56.04,1.04.13,1.43.08.39.26.7.51.94.26.24.62.41,1.09.51.47.11,1.09.16,1.85.16.83,0,1.51-.06,2.04-.18.53-.12.94-.29,1.25-.51.3-.22.51-.49.63-.8s.17-.66.17-1.03v-5.56h1.53v9.19h-1.53v-1.61c-.08.17-.2.36-.38.57s-.44.4-.79.58c-.35.18-.81.33-1.36.45-.56.12-1.25.18-2.07.18-.69,0-1.27-.04-1.77-.12s-.91-.21-1.25-.37c-.34-.16-.62-.36-.83-.6s-.37-.52-.48-.83c-.11-.32-.19-.67-.22-1.06-.04-.39-.06-.81-.06-1.28v-5.11h1.53Z"/>
        <path class="cls-3" d="M592.9,46.6h-1.53v-1.53h1.53v1.53ZM591.36,48.13h1.53v9.19h-1.53v-9.19Z"/>
        <path class="cls-3" d="M595.96,45.07h1.53v12.25h-1.53v-12.25Z"/>
        <path class="cls-3" d="M605.4,57.5c-1.02,0-1.89-.08-2.6-.23s-1.29-.41-1.74-.77c-.45-.36-.77-.86-.97-1.47-.2-.62-.3-1.39-.3-2.33s.1-1.73.3-2.36.53-1.12.97-1.48,1.03-.62,1.74-.77c.71-.15,1.58-.22,2.6-.22.72,0,1.33.04,1.82.11s.89.17,1.2.28c.31.11.55.23.71.36.16.13.28.25.36.36v-3.92h1.53v12.25h-1.53v-1.44l-.38.48c-.22.23-.47.41-.74.55-.27.14-.65.27-1.14.4-.49.12-1.09.19-1.82.19ZM605.4,56.22c.51,0,.97-.01,1.36-.04.4-.02.75-.08,1.05-.15.3-.08.56-.2.77-.35.21-.16.38-.36.52-.62.13-.26.23-.58.29-.96.06-.38.09-.84.09-1.38s-.03-1.03-.09-1.42c-.06-.39-.16-.72-.29-.99s-.31-.47-.52-.63c-.21-.15-.47-.27-.77-.35s-.65-.13-1.05-.15c-.4-.02-.85-.03-1.36-.03-.59,0-1.11.02-1.54.06-.43.04-.8.1-1.11.2s-.55.23-.74.39c-.19.17-.33.38-.44.65-.1.26-.17.58-.21.95-.04.37-.05.81-.05,1.31s.02.92.05,1.29c.03.37.1.68.21.94s.25.47.44.64c.19.17.43.3.74.39s.67.16,1.11.2c.43.04.95.06,1.54.06Z"/>
        <path class="cls-3" d="M615.11,46.6h-1.53v-1.53h1.53v1.53ZM613.57,48.13h1.53v9.19h-1.53v-9.19Z"/>
        <path class="cls-3" d="M626.85,57.32v-5.11c0-.57-.04-1.05-.13-1.44s-.26-.71-.51-.94-.62-.41-1.08-.52c-.47-.11-1.09-.16-1.85-.16-.83,0-1.51.06-2.04.18s-.94.29-1.25.52c-.3.22-.51.49-.63.81s-.17.66-.17,1.04v5.62h-1.53v-9.19h1.53v1.53c.11-.26.27-.49.48-.67.21-.19.44-.35.7-.48s.54-.24.85-.32c.3-.08.61-.14.91-.19.3-.04.6-.08.88-.09s.54-.02.78-.02c.68,0,1.27.04,1.76.13.49.09.91.21,1.25.38.34.16.62.37.83.61.21.24.37.53.48.85.11.32.19.68.23,1.08.04.4.06.83.06,1.3v5.11h-1.54Z"/>
        <path class="cls-3" d="M641.41,56.05c0,.89-.1,1.63-.3,2.23-.2.59-.53,1.07-.97,1.43s-1.03.62-1.74.76c-.71.14-1.58.22-2.6.22-.96,0-1.76-.04-2.41-.13-.65-.09-1.18-.22-1.58-.4-.4-.18-.68-.42-.86-.71-.17-.29-.26-.64-.26-1.06h1.53c0,.21.05.38.16.51.11.13.3.24.57.31s.64.13,1.1.16,1.04.04,1.74.04c.77,0,1.41-.03,1.93-.08s.94-.19,1.26-.39.55-.52.69-.94c.14-.42.21-.98.21-1.68-.07.13-.19.27-.36.41-.16.15-.4.29-.71.42-.31.13-.71.23-1.2.32s-1.09.13-1.82.13c-1.02,0-1.89-.08-2.6-.23s-1.29-.41-1.74-.78-.77-.86-.97-1.48c-.2-.62-.3-1.41-.3-2.35s.1-1.75.3-2.38.53-1.13.97-1.49c.45-.37,1.03-.63,1.74-.77.71-.15,1.58-.22,2.6-.22.72,0,1.33.04,1.82.11s.89.17,1.2.28c.31.11.55.23.71.36.16.13.28.25.36.36v-.85h1.53v7.91ZM635.79,49.15c-.59,0-1.11.02-1.54.06-.43.04-.8.1-1.11.2-.3.09-.55.23-.74.4-.19.17-.33.39-.44.65s-.17.59-.21.96c-.04.37-.05.81-.05,1.32s.02.93.05,1.31c.03.37.1.69.21.95.1.26.25.48.44.65.19.17.43.3.74.4.3.09.67.16,1.11.2.43.04.95.06,1.54.06.51,0,.97-.01,1.36-.04.4-.02.75-.08,1.05-.16.3-.08.56-.2.77-.36.21-.16.38-.37.52-.63.13-.26.23-.59.29-.98.06-.39.09-.86.09-1.42s-.03-1.03-.09-1.42c-.06-.39-.16-.72-.29-.98-.13-.26-.31-.47-.52-.63-.21-.15-.47-.27-.77-.35s-.65-.13-1.05-.15c-.4-.02-.85-.03-1.36-.03Z"/>
        <path class="cls-3" d="M568.52,72.71c-.55-.02-1.02-.07-1.42-.13-.4-.07-.73-.16-.99-.28-.26-.12-.47-.29-.63-.49-.15-.2-.26-.46-.33-.76s-.1-.63-.1-.98c0-.48.1-.88.3-1.21.2-.33.53-.59.97-.8.45-.21,1.03-.35,1.74-.44.71-.09,1.58-.14,2.6-.14s1.84.05,2.5.16c.66.11,1.18.27,1.56.49.39.22.66.5.81.83.15.33.23.73.23,1.2h-1.53c0-.29-.06-.52-.16-.7-.11-.18-.3-.32-.57-.43-.27-.1-.64-.18-1.1-.22s-1.04-.06-1.74-.06c-.77,0-1.41.01-1.93.03-.52.02-.94.07-1.26.16-.32.09-.55.22-.69.39s-.21.42-.21.73c0,.18.01.36.04.53s.08.32.16.43c.08.11.21.2.38.26.16.06.39.1.67.13.28.03.64.04,1.06.05.42,0,.93,0,1.52,0,.72,0,1.36.02,1.9.05.54.03,1.02.09,1.42.17.4.08.73.2.99.37.26.16.47.34.63.54.16.19.27.42.33.69.06.26.09.57.09.91s-.03.66-.09.93c-.06.27-.18.52-.34.73-.16.21-.38.39-.65.54s-.62.27-1.03.37c-.41.09-.91.16-1.49.21-.58.04-1.25.07-2.01.07-.96,0-1.76-.05-2.41-.14-.65-.09-1.18-.25-1.58-.46s-.68-.48-.86-.82c-.17-.33-.26-.74-.26-1.23h1.53c0,.32.06.58.16.78.11.2.3.35.57.47s.64.19,1.1.23,1.04.06,1.74.06c.64,0,1.18-.02,1.63-.04.45-.03.83-.08,1.13-.14s.54-.14.72-.23c.18-.09.31-.2.4-.33.09-.13.15-.27.17-.43s.04-.33.04-.52c0-.18-.01-.33-.04-.47-.02-.13-.08-.27-.16-.41-.08-.13-.21-.24-.37-.31-.17-.07-.39-.13-.67-.17s-.64-.08-1.06-.1c-.42-.02-.93-.03-1.52-.03-.72,0-1.36-.01-1.91-.03Z"/>
        <path class="cls-3" d="M577.57,72.23c0-.93.1-1.71.3-2.32s.53-1.1.97-1.46,1.03-.61,1.74-.76c.71-.14,1.58-.22,2.6-.22s1.89.07,2.6.22c.71.15,1.29.4,1.74.76s.77.84.97,1.46c.2.61.3,1.38.3,2.32s-.1,1.74-.3,2.37c-.2.63-.53,1.13-.97,1.49-.45.37-1.03.63-1.74.78-.71.15-1.58.23-2.6.23s-1.89-.08-2.6-.23c-.71-.15-1.29-.41-1.74-.78-.45-.37-.77-.87-.97-1.49-.2-.63-.3-1.42-.3-2.37ZM579.1,72.23c0,.51.02.94.06,1.32.04.37.11.69.21.96.11.27.25.49.44.65.18.17.43.3.73.4s.67.17,1.11.21c.43.04.95.06,1.54.06.51,0,.97-.01,1.37-.04.4-.02.75-.08,1.05-.16.3-.08.56-.2.77-.36.21-.16.38-.37.51-.63.13-.27.23-.6.29-.99.06-.39.09-.86.09-1.42s-.03-1-.09-1.38c-.06-.38-.16-.7-.29-.96-.13-.26-.3-.46-.51-.61-.21-.15-.47-.26-.77-.34-.3-.08-.65-.12-1.05-.14-.4-.02-.86-.03-1.37-.03s-.97.01-1.37.03-.75.07-1.05.14c-.3.08-.56.19-.77.34-.21.15-.38.35-.52.61-.13.26-.23.58-.29.96-.06.38-.09.84-.09,1.38Z"/>
        <path class="cls-3" d="M591.1,64.67h1.53v12.25h-1.53v-12.25Z"/>
        <path class="cls-3" d="M596.72,67.74v5.06c0,.56.04,1.04.13,1.43.08.39.26.7.51.94.26.24.62.41,1.09.51.47.11,1.09.16,1.85.16.83,0,1.51-.06,2.04-.18.53-.12.94-.29,1.25-.51.3-.22.51-.49.63-.8s.17-.66.17-1.03v-5.56h1.53v9.19h-1.53v-1.61c-.08.17-.2.36-.38.57s-.44.4-.79.58c-.35.18-.81.33-1.36.45-.56.12-1.25.18-2.07.18-.69,0-1.27-.04-1.77-.12s-.91-.21-1.25-.37c-.34-.16-.62-.36-.83-.6s-.37-.52-.48-.83c-.11-.32-.19-.67-.22-1.06-.04-.39-.06-.81-.06-1.28v-5.11h1.53Z"/>
        <path class="cls-3" d="M616.89,72.84c0,.78-.06,1.43-.19,1.96s-.34.94-.64,1.26c-.3.31-.69.54-1.18.67-.49.13-1.09.2-1.81.2s-1.28-.05-1.76-.16c-.47-.11-.86-.29-1.15-.54-.29-.26-.5-.59-.63-1.02-.13-.43-.19-.96-.19-1.59v-4.6h-1.89v-1.28h1.89v-2.5h1.53v2.5h5.77v1.28h-5.77v4.6c0,.51.04.9.12,1.18s.2.48.37.61.39.2.67.22c.28.02.62.03,1.03.03.32,0,.6,0,.86-.02.25-.01.47-.04.66-.1.19-.06.35-.14.48-.26.13-.12.24-.28.32-.48.08-.21.14-.47.18-.79.04-.32.06-.71.06-1.17h1.28Z"/>
        <path class="cls-3" d="M620.98,66.2h-1.53v-1.53h1.53v1.53ZM619.44,67.74h1.53v9.19h-1.53v-9.19Z"/>
        <path class="cls-3" d="M623.27,72.23c0-.93.1-1.71.3-2.32s.53-1.1.97-1.46,1.03-.61,1.74-.76c.71-.14,1.58-.22,2.6-.22s1.89.07,2.6.22c.71.15,1.29.4,1.74.76s.77.84.97,1.46c.2.61.3,1.38.3,2.32s-.1,1.74-.3,2.37c-.2.63-.53,1.13-.97,1.49-.45.37-1.03.63-1.74.78-.71.15-1.58.23-2.6.23s-1.89-.08-2.6-.23c-.71-.15-1.29-.41-1.74-.78-.45-.37-.77-.87-.97-1.49-.2-.63-.3-1.42-.3-2.37ZM624.8,72.23c0,.51.02.94.06,1.32.04.37.11.69.21.96.11.27.25.49.44.65.18.17.43.3.73.4s.67.17,1.11.21c.43.04.95.06,1.54.06.51,0,.97-.01,1.37-.04.4-.02.75-.08,1.05-.16.3-.08.56-.2.77-.36.21-.16.38-.37.51-.63.13-.27.23-.6.29-.99.06-.39.09-.86.09-1.42s-.03-1-.09-1.38c-.06-.38-.16-.7-.29-.96-.13-.26-.3-.46-.51-.61-.21-.15-.47-.26-.77-.34-.3-.08-.65-.12-1.05-.14-.4-.02-.86-.03-1.37-.03s-.97.01-1.37.03-.75.07-1.05.14c-.3.08-.56.19-.77.34-.21.15-.38.35-.52.61-.13.26-.23.58-.29.96-.06.38-.09.84-.09,1.38Z"/>
        <path class="cls-3" d="M645.48,76.93v-5.11c0-.57-.04-1.05-.13-1.44s-.26-.71-.51-.94-.62-.41-1.08-.52c-.47-.11-1.09-.16-1.85-.16-.83,0-1.51.06-2.04.18s-.94.29-1.25.52c-.3.22-.51.49-.63.81s-.17.66-.17,1.04v5.62h-1.53v-9.19h1.53v1.53c.11-.26.27-.49.48-.67.21-.19.44-.35.7-.48s.54-.24.85-.32c.3-.08.61-.14.91-.19.3-.04.6-.08.88-.09s.54-.02.78-.02c.68,0,1.27.04,1.76.13.49.09.91.21,1.25.38.34.16.62.37.83.61.21.24.37.53.48.85.11.32.19.68.23,1.08.04.4.06.83.06,1.3v5.11h-1.54Z"/>
        <path class="cls-3" d="M652.52,72.71c-.55-.02-1.02-.07-1.42-.13-.4-.07-.73-.16-.99-.28-.26-.12-.47-.29-.63-.49-.15-.2-.26-.46-.33-.76s-.1-.63-.1-.98c0-.48.1-.88.3-1.21.2-.33.53-.59.97-.8.45-.21,1.03-.35,1.74-.44.71-.09,1.58-.14,2.6-.14s1.84.05,2.5.16c.66.11,1.18.27,1.56.49.39.22.66.5.81.83.15.33.23.73.23,1.2h-1.53c0-.29-.06-.52-.16-.7-.11-.18-.3-.32-.57-.43-.27-.1-.64-.18-1.1-.22s-1.04-.06-1.74-.06c-.77,0-1.41.01-1.93.03-.52.02-.94.07-1.26.16-.32.09-.55.22-.69.39s-.21.42-.21.73c0,.18.01.36.04.53s.08.32.16.43c.08.11.21.2.38.26.16.06.39.1.67.13.28.03.64.04,1.06.05.42,0,.93,0,1.52,0,.72,0,1.36.02,1.9.05.54.03,1.02.09,1.42.17.4.08.73.2.99.37.26.16.47.34.63.54.16.19.27.42.33.69.06.26.09.57.09.91s-.03.66-.09.93c-.06.27-.18.52-.34.73-.16.21-.38.39-.65.54s-.62.27-1.03.37c-.41.09-.91.16-1.49.21-.58.04-1.25.07-2.01.07-.96,0-1.76-.05-2.41-.14-.65-.09-1.18-.25-1.58-.46s-.68-.48-.86-.82c-.17-.33-.26-.74-.26-1.23h1.53c0,.32.06.58.16.78.11.2.3.35.57.47s.64.19,1.1.23,1.04.06,1.74.06c.64,0,1.18-.02,1.63-.04.45-.03.83-.08,1.13-.14s.54-.14.72-.23c.18-.09.31-.2.4-.33.09-.13.15-.27.17-.43s.04-.33.04-.52c0-.18-.01-.33-.04-.47-.02-.13-.08-.27-.16-.41-.08-.13-.21-.24-.37-.31-.17-.07-.39-.13-.67-.17s-.64-.08-1.06-.1c-.42-.02-.93-.03-1.52-.03-.72,0-1.36-.01-1.91-.03Z"/>
      </g>
      <g>
        <polygon class="cls-1" points=".87 47.47 49.19 19.39 49.19 1.26 .87 29.34 .87 47.47"/>
        <polygon class="cls-1" points="50.06 19.39 82.36 38.15 97.95 29.09 50.06 1.26 50.06 19.39"/>
        <polygon class="cls-1" points="63.16 38.47 49.64 30.8 29.52 43.38 42.72 52.42 63.16 38.47"/>
        <polygon class="cls-1" points="29.18 44.21 29.18 61.66 41.94 52.95 29.18 44.21"/>
        <polygon class="cls-1" points="98.38 79.9 98.38 61.78 50.06 89.86 50.06 107.98 98.38 79.9"/>
        <polygon class="cls-1" points="98.38 47.47 98.38 29.85 83.23 38.66 98.38 47.47"/>
        <polygon class="cls-1" points=".87 79.9 49.19 107.98 49.19 89.86 .87 61.78 .87 79.9"/>
        <polygon class="cls-1" points="29.5 62.5 49.19 75.98 49.19 57.91 42.72 53.48 29.5 62.5"/>
        <polygon class="cls-1" points="50.06 57.93 50.06 76.05 97.95 48.22 82.36 39.16 50.06 57.93"/>
        <polygon class="cls-3" points="50.06 89.36 50.06 89.86 98.38 61.78 98.38 79.9 50.06 107.98 50.06 108.99 99.25 80.41 99.25 60.26 49.63 89.1 50.06 89.36"/>
        <polygon class="cls-3" points=".87 79.9 .87 61.78 49.19 89.86 49.19 89.36 49.63 89.1 0 60.26 0 80.41 49.19 108.99 49.19 107.98 .87 79.9"/>
        <polygon class="cls-3" points="50.06 89.86 50.06 89.36 49.63 89.1 49.19 89.36 49.19 89.86 49.19 107.98 49.19 108.99 49.63 109.25 50.06 108.99 50.06 107.98 50.06 89.86"/>
        <polygon class="cls-2" points="50.06 19.39 50.06 19.89 49.63 20.14 81.49 38.66 82.36 38.15 50.06 19.39"/>
        <polygon class="cls-2" points="97.95 29.09 98.82 28.59 50.06 .25 50.06 1.26 97.95 29.09"/>
        <polygon class="cls-2" points="82.36 39.16 97.95 48.22 98.38 47.97 98.38 47.47 83.23 38.66 82.36 39.16"/>
        <polygon class="cls-2" points="29.5 62.5 28.72 63.03 49.19 77.04 49.19 75.98 29.5 62.5"/>
        <polygon class="cls-2" points="42.72 52.42 29.52 43.38 29.18 43.59 29.18 44.21 41.94 52.95 42.72 52.42"/>
        <polygon class="cls-2" points="49.19 57.91 49.19 57.43 49.65 57.16 43.49 52.95 42.72 53.48 49.19 57.91"/>
        <polygon class="cls-3" points="83.23 38.66 98.38 29.85 98.38 29.34 97.95 29.09 82.36 38.15 83.23 38.66"/>
        <polygon class="cls-3" points="50.06 76.05 50.06 77.06 98.82 48.73 97.95 48.22 50.06 76.05"/>
        <polygon class="cls-3" points="50.06 57.93 82.36 39.16 81.49 38.66 49.65 57.16 50.06 57.45 50.06 57.93"/>
        <polygon class="cls-3" points="83.23 38.66 82.36 38.15 81.49 38.66 82.36 39.16 83.23 38.66"/>
        <polygon class="cls-3" points="97.95 29.09 98.38 29.34 98.38 29.85 98.38 47.47 98.38 47.97 97.95 48.22 98.82 48.73 99.25 48.48 99.25 28.84 98.82 28.59 97.95 29.09"/>
        <polygon class="cls-3" points="50.06 57.93 50.06 57.45 49.65 57.16 49.19 57.43 49.19 57.91 49.19 75.98 49.19 77.04 49.61 77.33 50.06 77.06 50.06 76.05 50.06 57.93"/>
        <polygon class="cls-3" points="49.19 19.39 .87 47.47 .87 29.34 49.19 1.26 49.19 .25 0 28.84 0 48.98 49.63 20.14 49.19 19.89 49.19 19.39"/>
        <polygon class="cls-3" points="50.06 19.39 50.06 1.26 50.06 .25 49.63 0 49.19 .25 49.19 1.26 49.19 19.39 49.19 19.89 49.63 20.14 50.06 19.89 50.06 19.39"/>
        <polygon class="cls-3" points="41.94 52.95 29.18 61.66 29.18 62.29 29.5 62.5 42.72 53.48 41.94 52.95"/>
        <polygon class="cls-3" points="49.64 30.8 63.16 38.47 42.72 52.42 43.49 52.95 64.81 38.4 49.62 29.78 28.73 42.84 29.52 43.38 49.64 30.8"/>
        <polygon class="cls-3" points="41.94 52.95 42.72 53.48 43.49 52.95 42.72 52.42 41.94 52.95"/>
        <polygon class="cls-3" points="29.18 62.29 29.18 61.66 29.18 44.21 29.18 43.59 29.52 43.38 28.73 42.84 28.31 43.11 28.31 62.75 28.72 63.03 29.5 62.5 29.18 62.29"/>
      </g>
    </g>
  </g>
</svg>