<?xml version="1.0" encoding="UTF-8"?>
<svg id="Camada_2" data-name="Camada 2" xmlns="http://www.w3.org/2000/svg" viewBox="0 0 1322.69 1455.18">
  <defs>
    <style>
      .cls-1 {
        fill: #f1f0f0;
      }

      .cls-1, .cls-2 {
        stroke-width: 0px;
      }

      .cls-2 {
        fill: #d7d6d6;
      }
    </style>
  </defs>
  <g id="Layer_1" data-name="Layer 1">
    <g>
      <polygon class="cls-1" points="1322.69 1070.85 661.34 1455.18 661.34 1197.95 1322.69 813.61 1322.69 1070.85"/>
      <polygon class="cls-1" points="661.34 1197.95 0 813.61 0 1070.85 661.34 1455.18 661.34 1197.95"/>
      <polygon class="cls-2" points="1322.69 384.33 661.34 0 661.34 257.24 1322.69 641.57 1322.69 384.33"/>
      <polygon class="cls-2" points="661.34 768.66 380.62 576.5 380.62 833.73 661.34 1025.9 661.34 768.66"/>
      <polygon class="cls-1" points="661.34 1025.9 1322.69 641.57 1322.69 384.33 661.34 768.66 661.34 1025.9"/>
      <polygon class="cls-1" points="0 641.57 661.34 257.24 661.34 0 0 384.33 0 641.57"/>
      <polygon class="cls-1" points="380.62 833.28 854.36 509.95 661.34 400.46 380.62 576.04 380.62 833.28"/>
    </g>
  </g>
</svg>
