<?xml version="1.0" encoding="UTF-8"?>
<svg id="Camada_2" data-name="Camada 2" xmlns="http://www.w3.org/2000/svg" viewBox="0 0 2499.68 1918.03">
  <defs>
    <style>
      .cls-1 {
        fill: #c6c6c6;
        fill-rule: evenodd;
      }
    </style>
  </defs>
  <g id="Camada_1-2" data-name="Camada 1">
    <g>
      <path class="cls-1" d="M612.14,430.98c174.56-60.67,351.74-100.46,531.75-117.35,23.89-70.44,44.8-159.48,71.68-211.37,24.11-52.83,68.23-42.09,126.03,12.16,63.19,61.97,120.96,126.65,176.21,192.58,109.04,8.03,213.58,21.75,286.81,75.54,47.16,39.79,57.24,102.14,13.16,197.46-23.14,41.19-47.16,81.88-72.02,122.05,17.48,51.3,30.08,102.6,35.65,153.91l-7.09,11.64-44.68-138.66-127,171.98c104.72,7.93,193.92,29.8,278.85,55.6,38.38-87.31,58.15-181.65,58.05-277.01C1932.68,302.18,1627.7,0,1250.42,0c-289.74,0-538.41,175.9-638.28,430.98ZM1775.14,1119.04c-117.48,154.09-314.44,245.5-524.72,245.5-377.28,0-685.04-307.72-685.04-685.04,0-50.62,5.54-99.99,16.05-147.56,147.16-72.15,330.24-137.26,536.01-153.56-25.11,65.52-59.89,125.66-101.36,182.06l-75.1-122.58-5.63,22.56,70.19,114.83c-50.9,68.94-97.53,142.18-142.99,216.56-31.02,69.53-67.82,136.67-6,182.4,61.76,37.36,190.93,19.44,337.56,3.45,31.3,74.14,33.23,148.93,73.39,210.06,32.64,44.18,69.07,34.44,107.21.19,65.92-69.22,123.88-146.44,180.72-224.9,79.96,3.39,147.56,16.64,200.23,41.94,48.94,33.94,41.1,78.77,19.48,114.08h0ZM1230.01,307.38c79.21-5.4,158.65-6.74,238-4.04-25.88-32.82-52.3-65.71-94.52-101.24-35.59-29.15-63.96-27.04-87.42-3.52-23.71,32.67-41.78,69.38-56.06,108.8h0ZM1596.37,411.66c27.94,6.22,56.09,13.32,85.4,26.32,35.37,18.64,46.64,51.21,47.01,90.1-2.68,38.89-10.64,61.97-18.73,84.53-33.79-69.22-71.75-136.33-113.68-200.95h0ZM1167.85,909.56c-74.45,6.35-140.4,8.65-176.15-3.45-50.59-19.69-38.11-68.57-16.58-121.55l72.52-133.31c46.83,82.8,87.02,169.17,120.21,258.32ZM1230.57,973.75c83.47-8.34,167.3-12.53,251.19-12.57-28.17,34.78-57.49,68.6-87.92,101.42-43.06,43.43-86.12,74.98-121.27,9.83-16.22-31.91-30.25-64.88-42-98.68h0ZM1197.87,371.06c126,.19,242.67,8.4,345.68,28.28,60.82,77.31,114.49,157.67,152.32,244.81-39.2,79.77-93.15,162.84-161.84,249.2-109.98-3.55-220.83-4.6-337.4,11.6l-137.79-274.31c52.94-82.83,99.42-169.62,139.04-259.59ZM1725.05,1884.9c3.83,5.72,12.29,7,20.28,10.52,21.44,10.45,58.12,7.96,71.49-12.88,8.77-31.48-19.79-43.15-33.1-49.9-27.75-12.63-61.51-30.15-59.14-60.64-1.4-24.55,32.64-43.87,54.63-43.87,19.48,1.52,39.08,1.21,52.24,9.12l-1.4,20.16c-6.97-5.72-29.24-12.57-42.81-12.57-16.86,0-37.12,4.14-37.64,24.61,0,20.97,24.02,33.85,39.6,40.29,38.73,16.05,70.81,40.04,47.6,81.85-12.26,19.01-38.14,26.44-59.73,26.44-16.02,0-41.47-3.76-52.24-8.49l.22-24.64h0ZM1419.72,1614.73c1.93,2.86,6.19,3.52,10.27,5.29,10.86,5.29,29.37,4.08,36.15-6.44,4.48-15.99-9.99-21.87-16.74-25.26-14.03-6.38-31.11-15.24-29.93-30.61-.68-12.44,16.49-22.24,27.66-22.24,9.83.78,19.76.62,26.41,4.6l-.68,10.2c-3.52-2.92-14.81-6.38-21.65-6.38-8.52,0-18.79,2.12-19.04,12.44,0,10.64,12.16,17.08,20.07,20.41,19.6,8.09,35.81,20.22,24.08,41.38-6.22,9.61-19.29,13.38-30.24,13.38-8.09,0-20.97-1.93-26.44-4.32l.09-12.44h0ZM361.23,1614.73c1.93,2.86,6.19,3.52,10.27,5.29,10.86,5.29,29.4,4.08,36.18-6.44,4.45-15.99-9.99-21.87-16.74-25.26-14.03-6.38-31.11-15.24-29.93-30.61-.68-12.44,16.52-22.24,27.63-22.24,9.86.78,19.79.62,26.44,4.6l-.68,10.2c-3.52-2.92-14.81-6.38-21.68-6.38-8.52,0-18.79,2.12-19.04,12.44,0,10.64,12.16,17.08,20.07,20.41,19.57,8.09,35.81,20.22,24.08,41.38-6.19,9.61-19.29,13.38-30.21,13.38-8.12,0-20.97-1.93-26.44-4.32l.06-12.44h0ZM1515.67,1915.45v-182.28h26.2l101.27,143.11v-143.11h24.48v182.28h-26.16l-101.3-143.27v143.27h-24.48ZM2347.77,1915.45v-182.28h26.16l101.27,143.11v-143.11h24.48v182.28h-26.2l-101.3-143.27v143.27h-24.42ZM1422.9,1914.48v-181.69h24.52v181.69h-24.52ZM652.77,1629.69v-91.87h12.41v91.87h-12.41ZM2252.51,1914.48v-181.69h24.52v181.69h-24.52ZM2164.84,1629.69v-91.87h12.41v91.87h-12.41ZM1319.27,1629.69v-91.87h12.41v91.87h-12.41ZM1008,1914.48v-166.66h-76.84v-15.43h177.05v15.43h-75.69v166.66h-24.52ZM1948.02,1914.48v-166.66h-76.84v-15.43h177.08v15.43h-75.72v166.66h-24.52ZM2294.76,1629.69v-84.28h-38.89v-7.84h89.57v7.84h-38.3v84.28h-12.38,0ZM782.63,1629.69v-84.28h-38.89v-7.84h89.57v7.84h-38.27v84.28h-12.41ZM591.05,1914.48v-181.56h116.57v17.14h-88.98v61.32h75.6v17.02h-75.6v68.94h95.67v17.14h-123.26ZM1258.85,1914.48v-181.56h116.57v17.14h-88.98v61.32h75.63v17.02h-75.63v68.94h95.73v17.14h-123.32,0ZM2087.06,1914.48v-181.56h116.57v17.14h-88.98v61.32h75.6v17.02h-75.6v68.94h95.7v17.14h-123.29ZM1880.54,1629.69v-91.81h58.99v8.68h-44.99v30.99h38.2v8.56h-38.2v34.94h48.38v8.65h-62.38ZM240.27,1914.48v-180.54h27.44v162.12h95.6v18.42h-123.04ZM2027.26,1629.69v-91.28h13.88v81.98h48.35v9.3h-62.22ZM1058.28,1629.69v-91.28h13.84v81.98h48.41v9.3h-62.25ZM59.61,1842.84h70.09l-36.24-90.66s-33.85,90.66-33.85,90.66ZM0,1914.48l79.36-181.38h29.43l84.56,181.38h-31.17l-24.08-52.08H51.71l-22.68,52.08H0ZM913.39,1593.48h35.47l-18.32-45.89-17.14,45.89h0ZM883.28,1629.69l40.13-91.68h14.9l42.78,91.68h-15.77l-12.2-26.32h-43.71l-11.45,26.32h-14.68ZM1734.29,1593.48h35.44l-18.32-45.89-17.11,45.89ZM1704.11,1629.69l40.13-91.68h14.9l42.78,91.68h-15.77l-12.2-26.32h-43.68l-11.45,26.32h-14.72ZM2431.68,1593.48h35.47l-18.32-45.89-17.14,45.89ZM2401.53,1629.69l40.13-91.68h14.9l42.75,91.68h-15.71l-12.23-26.32h-43.68l-11.45,26.32h-14.72ZM791.4,1819.28h24.08c44.33,0,64.77-70.5,8.77-70.5h-32.85v70.5ZM762.56,1915.51v-182.59h79.33c11.39,0,46.39,11.23,46.23,46.04-.12,29.52-24.45,42.78-42.34,50.62l67.29,85.93h-30.86l-62.35-81.04h-28.47v81.04h-28.84,0ZM1576.99,1581.56h12.2c22.43,0,32.76-35.65,4.45-35.65h-16.61v35.65h-.03ZM1562.43,1630.22v-92.37h40.13c5.76,0,23.46,5.66,23.4,23.27-.06,14.93-12.38,21.62-21.4,25.64l34.04,43.43h-15.62l-31.58-41h-14.37v41.04h-14.59ZM520.4,1581.56h12.2c22.43,0,32.76-35.65,4.45-35.65h-16.61v35.65h-.03ZM505.8,1630.22v-92.37h40.13c5.76,0,23.46,5.66,23.36,23.27-.06,14.93-12.23,22.24-21.16,26.44-4.57,1.99-7.75,1.52-13.38,1.65h-14.4v41h-14.56ZM410.2,1914.48v-181.38h62.13c12.63,0,22.77,1.9,30.43,5.54,7.65,3.64,15.06,7.9,19.38,15.49,16.3,28.75-8.34,58.15-35.31,64.84,19.04,6.07,48.41,24.8,48.41,42.96.56,25.45-12.51,44.77-35.19,49.53-7.25,1.99-16.18,3.05-26.72,3.05h-63.12v-.03h0ZM436.43,1897.34h23.96c15.65,0,35.12-3.11,41.78-16.4,2.24-4.77,3.35-9.98,3.27-15.24.14-6.22-1.5-12.35-4.73-17.67-8.03-12.63-30.46-20.1-43.24-20.1h-21.03v69.41h0ZM436.43,1812.22h25.76c12.29,0,25.26-4.92,33.54-17.33,2.97-4.74,4.44-10.27,4.23-15.87,0-5.94-1.31-11.29-3.92-15.87-8.12-14.03-23.61-14.4-36.59-14.4h-23.02v63.47h0ZM28.5,1629.26h9.8v-91.62h-9.8v91.62ZM86.83,1629.26h9.8v-91.62h-9.8v91.62Z"/>
      <path class="cls-1" d="M85.59,1584.96v-6.13h-47.88v6.13h47.88ZM231.09,1533.93c22.96,0,41.72,22.68,41.72,50.43s-18.76,50.43-41.72,50.43-41.75-22.68-41.75-50.43,18.73-50.43,41.75-50.43ZM231.09,1543.76c17.55,0,31.89,18.23,31.89,40.6s-14.34,40.57-31.89,40.57-31.92-18.23-31.92-40.6,14.31-40.57,31.92-40.57Z"/>
    </g>
  </g>
</svg>