<?xml version="1.0" encoding="UTF-8"?>
<svg id="Camada_2" data-name="Camada 2" xmlns="http://www.w3.org/2000/svg" viewBox="0 0 399.99 333.48">
  <defs>
    <style>
      .cls-1 {
        fill: #c6c6c6;
      }
    </style>
  </defs>
  <g id="Bradesco">
    <g>
      <path class="cls-1" d="M114.85,276.99c-5.84-.12-10.96.6-15.97,1.79-.95,3.34-.83,8.22,0,11.68,6.2-1.43,9.65-1.55,13.58-1.55,7.63,0,11.32,3.1,11.32,9.41v.6c-2.26-.24-5-.48-6.91-.48-12.63,0-23.47,4.53-23.47,16.68,0,13.7,9.77,18.35,23.95,18.35,6.67,0,13.94-1.19,20.61-3.22v-30.86c0-14.77-7.97-22.04-23.11-22.4ZM123.79,321.32c-.83.24-4.53.6-6.32.6-6.79,0-10.49-2.03-10.49-6.79s3.69-6.67,10.49-6.67c2.26,0,4.89.24,6.32.36v12.5Z"/>
      <path class="cls-1" d="M87.57,277.71c-7.03,0-11.08,2.74-14.89,7.63-.36-2.5-.83-4.53-1.67-7.03-1.43-.48-3.93-.6-6.08-.6-2.03,0-4.65.24-5.96.6v53.98c1.79.48,4.77.6,7.39.6s5.84-.24,7.39-.6v-26.33c0-10.49,5.48-16.09,12.87-16.09,1.31,0,3.57,0,4.89.24.83-3.46.95-8.46.24-11.92-.85-.24-2.99-.48-4.18-.48Z"/>
      <path class="cls-1" d="M25.85,277.23c-4.29,0-8.46.95-11.08,2.26v-26.45c-4.17,1.55-8.58,3.69-12.27,6.67-1.91,1.55-2.5,3.1-2.5,5.36v65.3c3.93,1.67,11.92,3.1,19.54,3.1,19.3,0,30.38-11.8,30.38-28.84s-7.87-27.4-24.07-27.4ZM20.37,321.44c-1.55,0-3.93,0-5.6-.6v-29.67c2.03-1.07,4.89-1.67,8.58-1.67,7.39,0,11.32,5.12,11.32,14.78-.01,10.13-4.65,17.16-14.3,17.16Z"/>
      <path class="cls-1" d="M180.99,265.08v12.99c-2.62-.71-5.36-.83-7.75-.83-16.32,0-27.41,10.96-27.41,28.48s10.84,27.76,27.76,27.76c7.74,0,15.37-1.07,22.16-3.34v-77.09c-4.17,1.55-8.58,3.69-12.27,6.67-1.9,1.54-2.49,3.09-2.49,5.36ZM180.99,320.6c-2.5.71-4.29.83-6.32.83-9.77,0-13.58-6.43-13.58-15.73,0-10.37,3.81-16.68,13.46-16.68,2.86,0,4.65.36,6.43.83v30.75h.01Z"/>
      <path class="cls-1" d="M286.67,300.23l-5.96-2.5c-3.46-1.43-5.48-2.62-5.48-4.89,0-3.46,3.1-4.17,7.15-4.17s8.22.48,13.94,2.26c.71-3.93.71-7.63,0-11.08-3.57-1.91-10.25-2.86-16.09-2.86-11.44,0-20.14,6.2-20.14,15.49,0,8.34,3.57,12.51,13.58,16.56l4.65,1.91c4.41,1.79,5.72,2.86,5.72,5.72,0,4.29-4.29,5-7.86,5-5.96,0-10.49-1.19-16.2-3.22-.95,3.46-.95,7.98,0,11.56,4.89,2.62,11.56,3.46,18.59,3.46,11.32,0,20.38-5.96,20.38-16.68,0-8.82-3.82-12.99-12.28-16.56Z"/>
      <path class="cls-1" d="M332.67,321.32c-7.39,0-12.27-5.84-12.27-16.09s3.93-16.09,12.39-16.09c3.57,0,6.08.6,9.41,1.91.95-3.34,2.74-7.15,5.24-10.37-4.65-2.38-9.17-3.69-16.56-3.69-16.32,0-25.74,11.56-25.74,28.24s9.65,28.24,26.33,28.24c6.08,0,11.68-1.07,16.2-3.57-2.03-2.62-4.29-6.2-5.6-10.37-4.16,1.67-5.95,1.79-9.4,1.79Z"/>
      <path class="cls-1" d="M374.01,276.99c-16.56,0-25.86,11.32-25.86,28.36s9.77,28.12,25.86,28.12,25.98-11.08,25.98-28.12c0-17.16-9.29-28.36-25.98-28.36ZM374.01,321.56c-8.22,0-10.72-6.67-10.72-16.2s2.5-16.44,10.72-16.44,10.84,6.91,10.84,16.44c.01,10-2.73,16.2-10.84,16.2Z"/>
      <path class="cls-1" d="M229.84,276.99c-15.97,0-25.74,10.72-25.74,28.6s10.37,27.88,28.12,27.88c6.08,0,12.63-1.07,16.8-3.1.83-3.46.83-7.98,0-11.44-5.48,1.55-10.13,2.5-15.25,2.5-8.22,0-13.94-3.1-15.13-11.8h33.6c.48-1.31.6-5.72.6-7.51-.01-16.07-9.06-25.13-23-25.13ZM218.64,298.8c1.07-6.55,5-10.49,10.96-10.49,6.67,0,9.29,4.53,9.53,10.49h-20.49Z"/>
      <g>
        <path class="cls-1" d="M193.71,47.06c-13.43,0-28.12,1.23-42.62,3.7,14.69-18.85,37.97-31.01,63.94-31.01,19.16,0,38.33,7.22,51.22,17.97,2.33,1.94,4.12,2.11,5.91.35,1.79-1.76,1.61-3.52-.36-5.81C254.97,12.7,230.25-.51,201.06.01c-38.15.7-70.56,24.85-82.92,58.32-11.28,3.52-21.67,7.75-30.8,12.86-2.51,1.41-3.4,3.17-2.51,5.29.9,1.94,2.69,2.64,5.19,1.94,7.88-2.29,15.94-4.23,24.36-5.99-.9,4.41-1.43,8.99-1.43,13.74-.72,30.84,15.76,60.09,41.19,76.12,2.51,1.59,4.66,1.59,6.09-.35s1.25-3.7-.9-5.64c-16.12-14.45-25.07-35.95-25.07-57.27,0-10.75,2.15-21.14,6.27-30.48,8.42-.7,17.55-1.23,27.58-1.23,65.19,0,120.17,21.5,120.17,49.69,0,14.27-18.09,28.55-39.58,38.06-5.19,2.29-5.73,3.88-5.01,6.17.72,2.11,3.04,2.82,5.73,1.94,37.61-12.33,66.08-32.6,66.08-57.09-.01-33.31-53.73-59.03-121.79-59.03Z"/>
        <path class="cls-1" d="M224.84,216.45v-71.35c0-2.73-2.64-3.73-4.82-2.49l-18.14,10.44v66.84l19.48.03c1.93,0,3.48-1.55,3.48-3.47Z"/>
        <path class="cls-1" d="M179.81,168.34v49.34c0,1.23,1,2.24,2.24,2.24h13.73v-63.35l-13.7,7.89c-1.41.79-2.27,2.04-2.27,3.88Z"/>
      </g>
      <path class="cls-1" d="M114.85,276.99c-5.84-.12-10.96.6-15.97,1.79-.95,3.34-.83,8.22,0,11.68,6.2-1.43,9.65-1.55,13.58-1.55,7.63,0,11.32,3.1,11.32,9.41v.6c-2.26-.24-5-.48-6.91-.48-12.63,0-23.47,4.53-23.47,16.68,0,13.7,9.77,18.35,23.95,18.35,6.67,0,13.94-1.19,20.61-3.22v-30.86c0-14.77-7.97-22.04-23.11-22.4ZM123.79,321.32c-.83.24-4.53.6-6.32.6-6.79,0-10.49-2.03-10.49-6.79s3.69-6.67,10.49-6.67c2.26,0,4.89.24,6.32.36v12.5Z"/>
      <path class="cls-1" d="M87.57,277.71c-7.03,0-11.08,2.74-14.89,7.63-.36-2.5-.83-4.53-1.67-7.03-1.43-.48-3.93-.6-6.08-.6-2.03,0-4.65.24-5.96.6v53.98c1.79.48,4.77.6,7.39.6s5.84-.24,7.39-.6v-26.33c0-10.49,5.48-16.09,12.87-16.09,1.31,0,3.57,0,4.89.24.83-3.46.95-8.46.24-11.92-.85-.24-2.99-.48-4.18-.48Z"/>
      <path class="cls-1" d="M25.85,277.23c-4.29,0-8.46.95-11.08,2.26v-26.45c-4.17,1.55-8.58,3.69-12.27,6.67-1.91,1.55-2.5,3.1-2.5,5.36v65.3c3.93,1.67,11.92,3.1,19.54,3.1,19.3,0,30.38-11.8,30.38-28.84s-7.87-27.4-24.07-27.4ZM20.37,321.44c-1.55,0-3.93,0-5.6-.6v-29.67c2.03-1.07,4.89-1.67,8.58-1.67,7.39,0,11.32,5.12,11.32,14.78-.01,10.13-4.65,17.16-14.3,17.16Z"/>
      <path class="cls-1" d="M180.99,265.08v12.99c-2.62-.71-5.36-.83-7.75-.83-16.32,0-27.41,10.96-27.41,28.48s10.84,27.76,27.76,27.76c7.74,0,15.37-1.07,22.16-3.34v-77.09c-4.17,1.55-8.58,3.69-12.27,6.67-1.9,1.54-2.49,3.09-2.49,5.36ZM180.99,320.6c-2.5.71-4.29.83-6.32.83-9.77,0-13.58-6.43-13.58-15.73,0-10.37,3.81-16.68,13.46-16.68,2.86,0,4.65.36,6.43.83v30.75h.01Z"/>
      <path class="cls-1" d="M286.67,300.23l-5.96-2.5c-3.46-1.43-5.48-2.62-5.48-4.89,0-3.46,3.1-4.17,7.15-4.17s8.22.48,13.94,2.26c.71-3.93.71-7.63,0-11.08-3.57-1.91-10.25-2.86-16.09-2.86-11.44,0-20.14,6.2-20.14,15.49,0,8.34,3.57,12.51,13.58,16.56l4.65,1.91c4.41,1.79,5.72,2.86,5.72,5.72,0,4.29-4.29,5-7.86,5-5.96,0-10.49-1.19-16.2-3.22-.95,3.46-.95,7.98,0,11.56,4.89,2.62,11.56,3.46,18.59,3.46,11.32,0,20.38-5.96,20.38-16.68,0-8.82-3.82-12.99-12.28-16.56Z"/>
      <path class="cls-1" d="M332.67,321.32c-7.39,0-12.27-5.84-12.27-16.09s3.93-16.09,12.39-16.09c3.57,0,6.08.6,9.41,1.91.95-3.34,2.74-7.15,5.24-10.37-4.65-2.38-9.17-3.69-16.56-3.69-16.32,0-25.74,11.56-25.74,28.24s9.65,28.24,26.33,28.24c6.08,0,11.68-1.07,16.2-3.57-2.03-2.62-4.29-6.2-5.6-10.37-4.16,1.67-5.95,1.79-9.4,1.79Z"/>
      <path class="cls-1" d="M374.01,276.99c-16.56,0-25.86,11.32-25.86,28.36s9.77,28.12,25.86,28.12,25.98-11.08,25.98-28.12c0-17.16-9.29-28.36-25.98-28.36ZM374.01,321.56c-8.22,0-10.72-6.67-10.72-16.2s2.5-16.44,10.72-16.44,10.84,6.91,10.84,16.44c.01,10-2.73,16.2-10.84,16.2Z"/>
      <path class="cls-1" d="M229.84,276.99c-15.97,0-25.74,10.72-25.74,28.6s10.37,27.88,28.12,27.88c6.08,0,12.63-1.07,16.8-3.1.83-3.46.83-7.98,0-11.44-5.48,1.55-10.13,2.5-15.25,2.5-8.22,0-13.94-3.1-15.13-11.8h33.6c.48-1.31.6-5.72.6-7.51-.01-16.07-9.06-25.13-23-25.13ZM218.64,298.8c1.07-6.55,5-10.49,10.96-10.49,6.67,0,9.29,4.53,9.53,10.49h-20.49Z"/>
    </g>
  </g>
</svg>