<?xml version="1.0" encoding="UTF-8"?>
<svg id="Camada_2" data-name="Camada 2" xmlns="http://www.w3.org/2000/svg" viewBox="0 0 541.95 250.25">
  <defs>
    <style>
      .cls-1 {
        fill: #c6c6c5;
        fill-rule: evenodd;
      }
    </style>
  </defs>
  <g id="Vector_Logo" data-name="Vector Logo">
    <g>
      <path class="cls-1" d="M171.63.13c0-.11-46.64,0-46.64,0C55.96.13,0,56.09,0,125.12s55.96,125,125,125l87.69-.07c22.03,0,39.89-17.72,39.89-39.75l.05-76.24,60.61,95.6c8.2,12.41,22.27,20.59,38.25,20.59,25.3,0,45.81-20.51,45.81-45.81v-70.37s60.59,95.6,60.59,95.6c8.2,12.41,22.27,20.59,38.25,20.59,25.3,0,45.81-20.51,45.81-45.81V.01h-31.2v204.42c0,8.07-6.54,14.61-14.61,14.61-5.04,0-9.49-2.55-12.12-6.44l-107.88-169.92c-1-1.45-2.67-2.4-4.56-2.4-3.05,0-5.53,2.48-5.53,5.53l.03,158.62c0,8.07-6.54,14.61-14.61,14.61-5.04,0-9.49-2.55-12.12-6.44L231.48,42.68c-1-1.45-2.67-2.4-4.56-2.4-3.05,0-5.53,2.48-5.53,5.53l-.02,164.49c0,4.8-3.89,8.69-8.69,8.69l-87.69-.07c-51.8,0-93.8-42-93.8-93.8S73.2,31.33,125,31.33l46.64-.03V.13h0Z"/>
      <path class="cls-1" d="M176.66,178.86c2.45,0,4.44-1.99,4.44-4.44V45.81c.01-25.3,20.52-45.81,45.82-45.81,16.04,0,30.15,8.24,38.34,20.72l60.4,94.75.11-69.66c0-25.3,20.51-45.81,45.81-45.81,16.04,0,30.15,8.24,38.34,20.72l60.4,94.75V.01h31.4l-.06,204.42c0,3.05-2.48,5.53-5.53,5.53-1.81,0-3.41-.87-4.42-2.21l-108.01-170.11c-2.62-3.89-7.07-6.44-12.12-6.44-8.07,0-14.61,6.54-14.61,14.61l.04,158.62c0,3.05-2.48,5.53-5.53,5.53-1.81,0-3.41-.87-4.42-2.21L239.04,37.64c-2.63-3.89-7.07-6.44-12.12-6.44-8.07,0-14.61,6.54-14.61,14.61l.07,159.88c0,2.45-1.99,4.44-4.44,4.44l-82.94-.02c-46.79,0-84.71-38.21-84.71-84.99S78.21,40.13,125,40.13c0,0,46.64-.18,46.64,0v31.51l-46.64-.04c-29.55,0-53.51,23.96-53.51,53.51s23.96,53.79,53.51,53.79l51.66-.06h0Z"/>
    </g>
  </g>
</svg>