<?xml version="1.0" encoding="UTF-8"?>
<svg id="Camada_2" data-name="Camada 2" xmlns="http://www.w3.org/2000/svg" viewBox="0 0 370 62.1">
  <defs>
    <style>
      .cls-1 {
        fill: #c6c6c6;
      }
    </style>
  </defs>
  <g id="Layer_1" data-name="Layer 1">
    <g>
      <polygon class="cls-1" points="12.42 28.57 49.7 0 62.11 0 37.27 28.57 62.01 28.57 62.01 33.54 37.27 33.54 62.11 62.1 49.7 62.1 12.42 33.54 0 33.54 4.97 28.57 12.42 28.57"/>
      <path class="cls-1" d="M86.53,23.09v4.71h22.25v6.54h-22.25v4.74h24.44v7.52h-33.32V15.53h33.31v7.57h-24.43M115.39,46.61V15.53h14.94l10.46,19.41,10.46-19.41h15.2v31.09h-8.91v-22.12h-.37l-12,22.12h-8.78l-11.92-22.14h-.23v22.14h-8.86ZM170.92,46.61V15.53h26.2c6.52,0,9.68,2.82,9.68,8.68,0,3.34-1.36,5.38-4.28,6.58,3.68.65,5.28,2.95,5.28,7.4,0,5.99-2.88,8.42-9.32,8.42h-27.56ZM197.69,25.06c0-1.54-.92-2.56-2.28-2.56h-15.6v5.13h15.6c1.47,0,2.28-.89,2.28-2.56M198.65,36.69c0-1.67-.96-2.73-2.44-2.73h-16.4v5.6h16.4c1.56,0,2.44-1.03,2.44-2.87M277.62,33.96l-5.95-10.99-5.82,10.99h11.77ZM249.08,46.61l16.76-31.09h11.94l16.48,31.09h-10.31l-2.96-5.18h-18.7l-3,5.18h-10.21ZM340.83,23.26v7.61h16.93c2.48,0,3.2-1.15,3.2-4.1,0-2.4-.92-3.51-3.2-3.51h-16.93ZM370,25.7c0,5.13-1.2,7.7-4.84,8.64,3.04.77,4.6,2.73,4.6,5.9v6.37h-8.88v-4.74c0-2.65-1.08-3.21-4.01-3.21h-16.05v7.95h-8.92V15.53h26.16c8.8,0,11.92,2.09,11.92,10.17M220.15,23.26v7.61h16.93c2.48,0,3.2-1.15,3.2-4.1,0-2.4-.92-3.51-3.2-3.51h-16.93ZM249.32,25.7c0,5.13-1.2,7.7-4.84,8.64,3.04.77,4.6,2.73,4.6,5.9v6.37h-8.88v-4.74c0-2.65-1.08-3.21-4-3.21h-16.05v7.95h-8.92V15.53h26.17c8.79,0,11.92,2.09,11.92,10.17M303.14,23.09v4.71h22.24v6.54h-22.24v4.74h24.44v7.52h-33.32V15.53h33.31v7.57h-24.43Z"/>
    </g>
  </g>
</svg>