<?xml version="1.0" encoding="UTF-8"?>
<svg id="Camada_2" data-name="Camada 2" xmlns="http://www.w3.org/2000/svg" viewBox="0 0 170.96 78.31">
  <defs>
    <style>
      .cls-1 {
        fill: #c7c6c6;
        fill-rule: evenodd;
      }
    </style>
  </defs>
  <g id="Camada_1-2" data-name="Camada 1">
    <path class="cls-1" d="M138.26,43.62c-.91-19.84-18.07-20.22-24.46,2.25-.04.14-.07.29-.11.43l-4.12.6c.43-2.45.47-5.09.19-7.6-2.47-7.46-10.19-3.28-11.24,2.86-.99,3.62,1.2,9.9,7.34,8.84h.08c-4.34,21.23-16.77,27.05-18.83,10.21,7.28-16.14,17.92-32.49,11.81-54.34-2.3-9.06-8.33-9.25-12.21,0-5.64,19.76-7.24,41.06-4.44,59.72-3.76,4.7-9.14,4.45-8.05-3.29l1.74-33.22h-6.78l-1.91,35.39v-2.35c-4.12,8.41-15.54,10.2-11.3-2.96,1.74-7.48,11.83-15.48,6.26-22.44-2.72-1.74-5.68-3.48-8.87-5.22,1.57-3.83,2.61-7.65,2.78-11.48h-5.39c-.99,4.7-2.14,10.09-4.87,12.17.99,2.55.81,5.33-.52,8.35,6.9-9.74,12.58,2.43,10.26,6.26-4,6.55-8.7,14.67-7.83,24.35,3.95,11.57,14.69,2.94,19.31-3.59v.11c1.54,11.1,9.86,12.54,16.1,1.48,3.68,10.6,12.07,9.96,17.1,2.26,4.24-6.94,6.22-14.46,8.71-21.98l3.89-.67.08-.23c-2.31,12.58,1.3,20.73,5.32,25.92,6.6,6.38,14.16.38,17.38-7.88,1.78-5.75,2.88-11.5,2.97-17.26,2.48-1.57,5.41-5.03,7.55-7.58l-1.08,25.81c.54,5.77,2.7,9.01,6.49,9.73,3.33.21,6.67-2.29,10-8.92l-1.49-4.6-3.24,5.14c-3.69,1.62-4.68-2.43-4.59-5.68l1.76-33.65h-6.62c-1.57,7.92-5,13.18-9.11,13.37-.02-.12-.03-.23-.05-.35h0ZM58.02,4.14C32.05,12.71,8.72-8.29.14,17.9c-1.3,12.57,6.87,20.17,19.4,14.42l.61-4.6c-9.33,5.19-14.06-5.75-7.98-11.35,4.97-5.12,12.18-2.54,20.13-1.29-5.93,5.9-8.29,13.58-9.19,21.24l-7.09,5.08,1.19,4.26,5.48-3.88c0,.16-.01.31-.02.47-1.42,9.49-.8,18.98-4.26,28.47-2.73,6.2-8.53,4.55-8.87-4.77-.68-4.38.34-9.95,3.24-13.81l-1.19-5.46c-6.2,5.51-9.83,13.41-8.35,20.63,1.59,12.5,15.12,14.95,22.68,2.22,4.21-8.75,3.98-20.23,4.43-32.91.02-.12.04-.27.06-.46.97-.43,2.13-.7,2.93-.65.76,6.97,7.66,8.58,9.46,1.96.23-5.68-2.62-8.37-12.13-6,.33-4.66,1.28-11.33,4.93-15.98,7.43.66,15.29-.81,22.44-11.34h0ZM73.2,12.34c2.68,0,4.87,2.66,4.87,5.91s-2.19,5.91-4.87,5.91-4.87-2.66-4.87-5.91,2.19-5.91,4.87-5.91h0ZM151.17,12.34c2.68,0,4.87,2.66,4.87,5.91s-2.19,5.91-4.87,5.91-4.87-2.66-4.87-5.91,2.19-5.91,4.87-5.91h0ZM164.95,30.34c1.01,0,1.99.26,2.96.77.96.52,1.71,1.26,2.25,2.23.54.96.81,1.97.81,3.02s-.26,2.03-.79,2.99c-.53.96-1.27,1.7-2.22,2.23-.96.53-1.95.79-2.99.79s-2.04-.26-2.99-.79c-.95-.53-1.7-1.27-2.23-2.23-.53-.95-.8-1.95-.8-2.99s.27-2.05.81-3.02c.54-.97,1.29-1.71,2.25-2.23.96-.52,1.95-.77,2.96-.77h0ZM164.95,31.33c-.85,0-1.67.22-2.47.65-.8.43-1.43,1.05-1.88,1.85-.45.81-.68,1.64-.68,2.52s.22,1.69.67,2.49c.44.79,1.06,1.41,1.86,1.86.8.44,1.63.67,2.49.67s1.7-.22,2.49-.67c.8-.44,1.41-1.06,1.86-1.86.44-.79.66-1.62.66-2.49s-.22-1.71-.67-2.52c-.45-.8-1.07-1.42-1.88-1.85-.8-.43-1.62-.65-2.46-.65h0ZM162.31,39.68v-6.47h2.22c.76,0,1.31.06,1.65.18.34.12.61.33.81.63.2.3.3.61.3.95,0,.47-.17.88-.51,1.24-.34.35-.79.55-1.34.59.23.1.41.21.55.34.26.26.58.68.96,1.28l.79,1.26h-1.28l-.57-1.02c-.45-.8-.81-1.3-1.09-1.5-.19-.15-.47-.22-.84-.22h-.61v2.75h-1.04ZM163.35,36.04h1.27c.6,0,1.02-.09,1.24-.27.22-.18.33-.42.33-.72,0-.19-.05-.36-.16-.51-.11-.15-.25-.26-.44-.34-.19-.08-.54-.11-1.05-.11h-1.19v1.95h0ZM87.72,53.73c-1.18-13.39.59-27.76,4.13-41.54,1.31-2.76,3.41-2.36,3.35.59.98,9.19.79,18.38-1.77,27.56-1.31,4.59-2.62,9.38-5.71,13.39h0ZM106.74,47.14c-2.82.5-5.14-.62-5.23-3.98-.17-4.09,4.33-6.8,5.29-2.24.1,1.83.08,4.15-.06,6.22h0ZM119.49,47.46c4.09,4.74,6.23,7.39,13.63,6.13-.92,17.53-9.57,25.49-13.68,13.51-1.44-5.12-1.88-14.07.05-19.65h0ZM121.69,39.44c3.59-10.19,11.37-9.28,11.75,6.44-5.1.86-9.87-1.66-11.75-6.44h0Z"/>
  </g>
</svg>