<?xml version="1.0" encoding="UTF-8"?>
<svg id="Camada_2" data-name="Camada 2" xmlns="http://www.w3.org/2000/svg" viewBox="0 0 143.88 30.93">
  <defs>
    <style>
      .cls-1 {
        fill: #c6c6c6;
      }
    </style>
  </defs>
  <g id="Camada_1-2" data-name="Camada 1">
    <path class="cls-1" d="M142.39.5h-3.26c-.93,0-1.49.55-1.49,1.47v9.49c0,3.48-1.91,5.45-4.56,5.45-2.79,0-4.37-1.79-4.37-5.22V1.97c0-.92-.56-1.47-1.49-1.47h-3.26c-.93,0-1.49.55-1.49,1.47v10.18c0,6.46,3.4,10.13,8.52,10.13,3.07,0,5.44-1.01,7.12-3.07l.28,1.28c.19.83.74,1.28,1.63,1.28h2.37c.93,0,1.49-.55,1.49-1.47V1.97c0-.92-.56-1.47-1.49-1.47h0ZM119.68,16.18h-5.86c-2.05,0-3.12-1.05-3.12-3.07V1.97c0-.92-.56-1.47-1.49-1.47h-3.35c-.93,0-1.49.55-1.49,1.47v11.92c0,4.9,3.02,7.89,8.01,7.89h7.31c.93,0,1.49-.55,1.49-1.47v-2.66c0-.92-.57-1.47-1.5-1.47h0ZM24.86,1.92c-.09-.96-.61-1.42-1.54-1.42h-2.47c-.79,0-1.35.32-1.77,1.01l-6,9.99L7.5,1.51c-.37-.69-.98-1.01-1.77-1.01h-2.65c-.93,0-1.44.47-1.54,1.42L.01,20.26c-.09,1.01.42,1.51,1.4,1.51h2.98c.93,0,1.49-.46,1.53-1.42l.65-10.27,3.58,6.37c.37.69.98,1.01,1.77,1.01h2.05c.79,0,1.35-.28,1.77-1.01l4.05-6.83.46,10.73c.05.97.56,1.42,1.49,1.42h3.21c.98,0,1.49-.5,1.4-1.51l-1.49-18.33ZM100.05.5h-2.56c-.89,0-1.49.46-1.63,1.33l-.14,1.05c-1.44-1.51-3.54-2.89-7.03-2.89-5.86,0-10.19,4.54-10.19,11.09s4.05,11.18,9.82,11.18c3.63,0,6-1.51,7.45-3.07l.23,1.28c.14.83.7,1.28,1.58,1.28h2.47c.93,0,1.49-.55,1.49-1.47V1.97c0-.92-.56-1.47-1.49-1.47ZM90.05,16.91c-3.31,0-5.4-2.25-5.4-5.73s2.19-5.82,5.4-5.82,5.4,2.25,5.4,5.73c0,3.53-2.19,5.82-5.4,5.82ZM74.78.5h-2.56c-.89,0-1.49.46-1.63,1.33l-.14,1.05c-1.44-1.51-3.54-2.89-7.03-2.89-5.86,0-10.19,4.26-10.19,10.82s4,10.63,9.77,10.63c3.58,0,5.72-1.47,7.17-3.02v1.05c0,3.67-2.09,6-6.51,6-1.81,0-3.6-.38-5.26-1.11-.88-.42-1.58-.23-2,.64l-1.02,2.02c-.42.83-.28,1.51.51,1.97,2.47,1.37,5.49,1.92,8.42,1.92,7.31,0,11.96-4.54,11.96-10.86V1.97c0-.92-.56-1.47-1.49-1.47ZM64.78,16.23c-3.21,0-5.4-2.11-5.4-5.36,0-3.44,2.28-5.5,5.4-5.5s5.4,1.88,5.4,5.41c0,3.16-2.28,5.45-5.4,5.45ZM49.52.5h-2.56c-.88,0-1.49.46-1.63,1.33l-.14,1.05c-1.44-1.51-3.53-2.89-7.02-2.89-5.86,0-10.19,4.54-10.19,11.09s4.05,11.18,9.82,11.18c3.63,0,6-1.51,7.44-3.07l.23,1.28c.14.83.7,1.28,1.58,1.28h2.47c.93,0,1.49-.55,1.49-1.47V1.97c0-.92-.56-1.47-1.49-1.47ZM39.51,16.91c-3.3,0-5.4-2.25-5.4-5.73s2.19-5.82,5.4-5.82,5.4,2.25,5.4,5.73-2.19,5.82-5.4,5.82Z"/>
  </g>
</svg>