<?xml version="1.0" encoding="UTF-8"?>
<svg id="Camada_2" data-name="Camada 2" xmlns="http://www.w3.org/2000/svg" viewBox="0 0 499.83 92.61">
  <defs>
    <style>
      .cls-1, .cls-2 {
        fill: #c6c6c6;
      }

      .cls-2 {
        fill-rule: evenodd;
      }
    </style>
  </defs>
  <g id="svg17">
    <g>
      <path id="Layer" class="cls-1" d="M271.23,81.72c-21.3,0-34.8-14.16-34.61-33.8l.42-41.28c.04-3.51,3.24-5.98,7.14-5.98s7.02,2.47,6.98,5.98l-.46,41.28c-.12,12.31,8.18,20.87,21.03,20.87s21.3-8.91,21.41-20.87l.46-41.75c.04-3.51,3.2-6.02,7.1-6.02s7.02,2.51,6.98,6.02l-.42,41.75c-.23,19.56-15.01,33.8-36.07,33.8"/>
      <path id="path5" class="cls-2" d="M472.32,80.06h-17.71c-15.63,0-25.5-10.65-25.35-25.46.15-13.62,9.65-24.92,26.47-24.92h29.98l.04-2.51c.08-7.06-5.29-12.81-11.96-12.81h-33.3c-3.9,0-6.67-2.86-6.64-6.37.04-3.51,2.86-6.37,6.75-6.37h33.33c14.43,0,26.04,11.46,25.89,25.54l-.23,26.51c-.15,15.39-11.46,26.39-27.28,26.39M455.62,41.71c-7.95,0-12.15,5.36-12.23,12.5-.12,7.68,3.74,13.12,11.34,13.12h17.71c7.83,0,12.96-5.36,13.08-13.66l.08-11.96h-29.98Z"/>
      <path id="path7" class="cls-2" d="M127.51,80.06h-29.01c-15.93,0-27.82-11.77-27.66-27.35,0,0,.08-14.08.15-18.94.23-22.8,11.73-33.76,36.19-33.76s34.8,9.8,34.8,26.27c0,.12-.04,1.31-.04,1.39-.12,13.04-7.68,18.44-20.06,18.44h-36.92c0,3.67-.04,6.56-.04,6.56-.08,8.53,5.67,14.66,13.74,14.66h29.01c3.9,0,6.64,2.86,6.6,6.37-.04,3.51-2.86,6.37-6.75,6.37h0ZM85.07,34.11h36.96c3.74,0,5.79-2.2,5.83-6.44v-1.39c0-12.89-10.73-13.54-20.83-13.54-16.67,0-21.8,5.56-21.95,21.37h0Z"/>
      <path id="path9" class="cls-1" d="M412.91,81.37c-3.9,0-7.02-2.47-7.02-5.98l.73-69.1c.04-3.51,3.24-6.02,7.14-6.02s7.02,2.51,6.98,6.02l-.73,69.06c-.04,3.51-3.24,6.02-7.1,6.02"/>
      <path id="path11" class="cls-1" d="M40.59,33.41h-16.67c-5.59,0-9.88-3.82-9.84-9.45.08-5.59,3.9-9.61,9.45-9.61h29.01c3.86,0,6.71-2.86,6.75-6.37,0-3.51-2.74-6.37-6.64-6.37h-29.01C10.69,1.62.16,10.96,0,23.96c-.12,12.38,9.53,22.15,23.77,22.15h16.71c6.29,0,9.65,5.05,9.61,10.73-.08,5.36-3.36,10.53-9.84,10.53H7.68c-3.9,0-6.71,2.82-6.75,6.33-.04,3.55,2.7,6.37,6.6,6.37h32.99c14.62,0,23.54-10.73,23.65-23.23.15-12.65-8.76-23.42-23.57-23.42"/>
      <path id="path13" class="cls-2" d="M356.11,81.29c-24.15,0-39.47-18.13-39.24-40.43.27-22.3,16.82-40.47,40.09-40.47s39.47,18.17,39.24,40.47c-.27,22.3-16.59,40.43-40.09,40.43M356.81,12.92c-15.51,0-25.89,12.54-26.04,27.93-.15,15.39,9.95,27.89,25.46,27.89s25.89-12.54,26.08-27.93c.15-15.39-10.22-27.89-25.5-27.89Z"/>
      <path id="path15" class="cls-2" d="M216.64,80.21c3.82,1.39,5.02,6.13,2.89,9.45-1.7,2.7-4.75,3.59-8.03,2.47-9.3-3.2-17.98-6.13-37.12-12.93-17.63-6.25-26.89-20.53-26.7-38.35.23-22.3,17.79-40.47,40.05-40.47s39.47,18.17,39.24,40.47c-.19,18.13-11.07,29.94-23.54,34.84,0,0,9.92,3.36,13.2,4.51M161.54,40.86c-.15,15.39,10.69,27.89,25.46,27.89s25.93-12.5,26.08-27.89c.15-15.39-10.65-27.93-25.46-27.93s-25.93,12.5-26.08,27.89v.04Z"/>
    </g>
  </g>
</svg>